<?xml version="1.0" encoding="utf-8" standalone="no"?>
<!DOCTYPE svg PUBLIC "-//W3C//DTD SVG 1.1//EN"
  "http://www.w3.org/Graphics/SVG/1.1/DTD/svg11.dtd">
<svg xmlns:xlink="http://www.w3.org/1999/xlink" width="720pt" height="432pt" viewBox="0 0 720 432" xmlns="http://www.w3.org/2000/svg" version="1.1">
 <metadata>
  <rdf:RDF xmlns:dc="http://purl.org/dc/elements/1.1/" xmlns:cc="http://creativecommons.org/ns#" xmlns:rdf="http://www.w3.org/1999/02/22-rdf-syntax-ns#">
   <cc:Work>
    <dc:type rdf:resource="http://purl.org/dc/dcmitype/StillImage"/>
    <dc:date>2024-11-16T06:45:28.757756</dc:date>
    <dc:format>image/svg+xml</dc:format>
    <dc:creator>
     <cc:Agent>
      <dc:title>Matplotlib v3.9.2, https://matplotlib.org/</dc:title>
     </cc:Agent>
    </dc:creator>
   </cc:Work>
  </rdf:RDF>
 </metadata>
 <defs>
  <style type="text/css">*{stroke-linejoin: round; stroke-linecap: butt}</style>
 </defs>
 <g id="figure_1">
  <g id="patch_1">
   <path d="M 0 432 
L 720 432 
L 720 0 
L 0 0 
z
" style="fill: #ffffff"/>
  </g>
  <g id="axes_1">
   <g id="patch_2">
    <path d="M 90 384.48 
L 648 384.48 
L 648 51.84 
L 90 51.84 
z
" style="fill: #ffffff"/>
   </g>
   <g id="patch_3">
    <path d="M 98.752941 384.48 
L 100.898438 384.48 
L 100.898438 -1472.500298 
L 98.752941 -1472.500298 
z
" clip-path="url(#pca40ccd3d5)" style="fill: #0000ff; opacity: 0.7"/>
   </g>
   <g id="patch_4">
    <path d="M 100.898438 384.48 
L 103.043934 384.48 
L 103.043934 -894.013112 
L 100.898438 -894.013112 
z
" clip-path="url(#pca40ccd3d5)" style="fill: #0000ff; opacity: 0.7"/>
   </g>
   <g id="patch_5">
    <path d="M 103.043934 384.48 
L 105.18943 384.48 
L 105.18943 -50.804154 
L 103.043934 -50.804154 
z
" clip-path="url(#pca40ccd3d5)" style="fill: #0000ff; opacity: 0.7"/>
   </g>
   <g id="patch_6">
    <path d="M 105.18943 384.48 
L 107.334926 384.48 
L 107.334926 126.048031 
L 105.18943 126.048031 
z
" clip-path="url(#pca40ccd3d5)" style="fill: #0000ff; opacity: 0.7"/>
   </g>
   <g id="patch_7">
    <path d="M 107.334926 384.48 
L 109.480423 384.48 
L 109.480423 182.255059 
L 107.334926 182.255059 
z
" clip-path="url(#pca40ccd3d5)" style="fill: #0000ff; opacity: 0.7"/>
   </g>
   <g id="patch_8">
    <path d="M 109.480423 384.48 
L 111.625919 384.48 
L 111.625919 207.91901 
L 109.480423 207.91901 
z
" clip-path="url(#pca40ccd3d5)" style="fill: #0000ff; opacity: 0.7"/>
   </g>
   <g id="patch_9">
    <path d="M 111.625919 384.48 
L 113.771415 384.48 
L 113.771415 244.350689 
L 111.625919 244.350689 
z
" clip-path="url(#pca40ccd3d5)" style="fill: #0000ff; opacity: 0.7"/>
   </g>
   <g id="patch_10">
    <path d="M 113.771415 384.48 
L 115.916912 384.48 
L 115.916912 281.293577 
L 113.771415 281.293577 
z
" clip-path="url(#pca40ccd3d5)" style="fill: #0000ff; opacity: 0.7"/>
   </g>
   <g id="patch_11">
    <path d="M 115.916912 384.48 
L 118.062408 384.48 
L 118.062408 302.66726 
L 115.916912 302.66726 
z
" clip-path="url(#pca40ccd3d5)" style="fill: #0000ff; opacity: 0.7"/>
   </g>
   <g id="patch_12">
    <path d="M 118.062408 384.48 
L 120.207904 384.48 
L 120.207904 318.967687 
L 118.062408 318.967687 
z
" clip-path="url(#pca40ccd3d5)" style="fill: #0000ff; opacity: 0.7"/>
   </g>
   <g id="patch_13">
    <path d="M 120.207904 384.48 
L 122.353401 384.48 
L 122.353401 333.753901 
L 120.207904 333.753901 
z
" clip-path="url(#pca40ccd3d5)" style="fill: #0000ff; opacity: 0.7"/>
   </g>
   <g id="patch_14">
    <path d="M 122.353401 384.48 
L 124.498897 384.48 
L 124.498897 339.940169 
L 122.353401 339.940169 
z
" clip-path="url(#pca40ccd3d5)" style="fill: #0000ff; opacity: 0.7"/>
   </g>
   <g id="patch_15">
    <path d="M 124.498897 384.48 
L 126.644393 384.48 
L 126.644393 345.181671 
L 124.498897 345.181671 
z
" clip-path="url(#pca40ccd3d5)" style="fill: #0000ff; opacity: 0.7"/>
   </g>
   <g id="patch_16">
    <path d="M 126.644393 384.48 
L 128.78989 384.48 
L 128.78989 352.170342 
L 126.644393 352.170342 
z
" clip-path="url(#pca40ccd3d5)" style="fill: #0000ff; opacity: 0.7"/>
   </g>
   <g id="patch_17">
    <path d="M 128.78989 384.48 
L 130.935386 384.48 
L 130.935386 354.338124 
L 128.78989 354.338124 
z
" clip-path="url(#pca40ccd3d5)" style="fill: #0000ff; opacity: 0.7"/>
   </g>
   <g id="patch_18">
    <path d="M 130.935386 384.48 
L 133.080882 384.48 
L 133.080882 358.511913 
L 130.935386 358.511913 
z
" clip-path="url(#pca40ccd3d5)" style="fill: #0000ff; opacity: 0.7"/>
   </g>
   <g id="patch_19">
    <path d="M 133.080882 384.48 
L 135.226379 384.48 
L 135.226379 361.980364 
L 133.080882 361.980364 
z
" clip-path="url(#pca40ccd3d5)" style="fill: #0000ff; opacity: 0.7"/>
   </g>
   <g id="patch_20">
    <path d="M 135.226379 384.48 
L 137.371875 384.48 
L 137.371875 362.601579 
L 135.226379 362.601579 
z
" clip-path="url(#pca40ccd3d5)" style="fill: #0000ff; opacity: 0.7"/>
   </g>
   <g id="patch_21">
    <path d="M 137.371875 384.48 
L 139.517371 384.48 
L 139.517371 364.724064 
L 137.371875 364.724064 
z
" clip-path="url(#pca40ccd3d5)" style="fill: #0000ff; opacity: 0.7"/>
   </g>
   <g id="patch_22">
    <path d="M 139.517371 384.48 
L 141.662868 384.48 
L 141.662868 367.881908 
L 139.517371 367.881908 
z
" clip-path="url(#pca40ccd3d5)" style="fill: #0000ff; opacity: 0.7"/>
   </g>
   <g id="patch_23">
    <path d="M 141.662868 384.48 
L 143.808364 384.48 
L 143.808364 368.813731 
L 141.662868 368.813731 
z
" clip-path="url(#pca40ccd3d5)" style="fill: #0000ff; opacity: 0.7"/>
   </g>
   <g id="patch_24">
    <path d="M 143.808364 384.48 
L 145.95386 384.48 
L 145.95386 369.493185 
L 143.808364 369.493185 
z
" clip-path="url(#pca40ccd3d5)" style="fill: #0000ff; opacity: 0.7"/>
   </g>
   <g id="patch_25">
    <path d="M 145.95386 384.48 
L 148.099357 384.48 
L 148.099357 371.072107 
L 145.95386 371.072107 
z
" clip-path="url(#pca40ccd3d5)" style="fill: #0000ff; opacity: 0.7"/>
   </g>
   <g id="patch_26">
    <path d="M 148.099357 384.48 
L 150.244853 384.48 
L 150.244853 371.369772 
L 148.099357 371.369772 
z
" clip-path="url(#pca40ccd3d5)" style="fill: #0000ff; opacity: 0.7"/>
   </g>
   <g id="patch_27">
    <path d="M 150.244853 384.48 
L 152.390349 384.48 
L 152.390349 372.735151 
L 150.244853 372.735151 
z
" clip-path="url(#pca40ccd3d5)" style="fill: #0000ff; opacity: 0.7"/>
   </g>
   <g id="patch_28">
    <path d="M 152.390349 384.48 
L 154.535846 384.48 
L 154.535846 373.783452 
L 152.390349 373.783452 
z
" clip-path="url(#pca40ccd3d5)" style="fill: #0000ff; opacity: 0.7"/>
   </g>
   <g id="patch_29">
    <path d="M 154.535846 384.48 
L 156.681342 384.48 
L 156.681342 373.783452 
L 154.535846 373.783452 
z
" clip-path="url(#pca40ccd3d5)" style="fill: #0000ff; opacity: 0.7"/>
   </g>
   <g id="patch_30">
    <path d="M 156.681342 384.48 
L 158.826838 384.48 
L 158.826838 374.081117 
L 156.681342 374.081117 
z
" clip-path="url(#pca40ccd3d5)" style="fill: #0000ff; opacity: 0.7"/>
   </g>
   <g id="patch_31">
    <path d="M 158.826838 384.48 
L 160.972335 384.48 
L 160.972335 375.459438 
L 158.826838 375.459438 
z
" clip-path="url(#pca40ccd3d5)" style="fill: #0000ff; opacity: 0.7"/>
   </g>
   <g id="patch_32">
    <path d="M 160.972335 384.48 
L 163.117831 384.48 
L 163.117831 375.284722 
L 160.972335 375.284722 
z
" clip-path="url(#pca40ccd3d5)" style="fill: #0000ff; opacity: 0.7"/>
   </g>
   <g id="patch_33">
    <path d="M 163.117831 384.48 
L 165.263327 384.48 
L 165.263327 375.446497 
L 163.117831 375.446497 
z
" clip-path="url(#pca40ccd3d5)" style="fill: #0000ff; opacity: 0.7"/>
   </g>
   <g id="patch_34">
    <path d="M 165.263327 384.48 
L 167.408824 384.48 
L 167.408824 376.203602 
L 165.263327 376.203602 
z
" clip-path="url(#pca40ccd3d5)" style="fill: #0000ff; opacity: 0.7"/>
   </g>
   <g id="patch_35">
    <path d="M 167.408824 384.48 
L 169.55432 384.48 
L 169.55432 376.25537 
L 167.408824 376.25537 
z
" clip-path="url(#pca40ccd3d5)" style="fill: #0000ff; opacity: 0.7"/>
   </g>
   <g id="patch_36">
    <path d="M 169.55432 384.48 
L 171.699816 384.48 
L 171.699816 376.430087 
L 169.55432 376.430087 
z
" clip-path="url(#pca40ccd3d5)" style="fill: #0000ff; opacity: 0.7"/>
   </g>
   <g id="patch_37">
    <path d="M 171.699816 384.48 
L 173.845312 384.48 
L 173.845312 376.25537 
L 171.699816 376.25537 
z
" clip-path="url(#pca40ccd3d5)" style="fill: #0000ff; opacity: 0.7"/>
   </g>
   <g id="patch_38">
    <path d="M 173.845312 384.48 
L 175.990809 384.48 
L 175.990809 376.443029 
L 173.845312 376.443029 
z
" clip-path="url(#pca40ccd3d5)" style="fill: #0000ff; opacity: 0.7"/>
   </g>
   <g id="patch_39">
    <path d="M 175.990809 384.48 
L 178.136305 384.48 
L 178.136305 376.520681 
L 175.990809 376.520681 
z
" clip-path="url(#pca40ccd3d5)" style="fill: #0000ff; opacity: 0.7"/>
   </g>
   <g id="patch_40">
    <path d="M 178.136305 384.48 
L 180.281801 384.48 
L 180.281801 376.637159 
L 178.136305 376.637159 
z
" clip-path="url(#pca40ccd3d5)" style="fill: #0000ff; opacity: 0.7"/>
   </g>
   <g id="patch_41">
    <path d="M 180.281801 384.48 
L 182.427298 384.48 
L 182.427298 376.857173 
L 180.281801 376.857173 
z
" clip-path="url(#pca40ccd3d5)" style="fill: #0000ff; opacity: 0.7"/>
   </g>
   <g id="patch_42">
    <path d="M 182.427298 384.48 
L 184.572794 384.48 
L 184.572794 376.721282 
L 182.427298 376.721282 
z
" clip-path="url(#pca40ccd3d5)" style="fill: #0000ff; opacity: 0.7"/>
   </g>
   <g id="patch_43">
    <path d="M 184.572794 384.48 
L 186.71829 384.48 
L 186.71829 377.148367 
L 184.572794 377.148367 
z
" clip-path="url(#pca40ccd3d5)" style="fill: #0000ff; opacity: 0.7"/>
   </g>
   <g id="patch_44">
    <path d="M 186.71829 384.48 
L 188.863787 384.48 
L 188.863787 376.785992 
L 186.71829 376.785992 
z
" clip-path="url(#pca40ccd3d5)" style="fill: #0000ff; opacity: 0.7"/>
   </g>
   <g id="patch_45">
    <path d="M 188.863787 384.48 
L 191.009283 384.48 
L 191.009283 376.850702 
L 188.863787 376.850702 
z
" clip-path="url(#pca40ccd3d5)" style="fill: #0000ff; opacity: 0.7"/>
   </g>
   <g id="patch_46">
    <path d="M 191.009283 384.48 
L 193.154779 384.48 
L 193.154779 377.413678 
L 191.009283 377.413678 
z
" clip-path="url(#pca40ccd3d5)" style="fill: #0000ff; opacity: 0.7"/>
   </g>
   <g id="patch_47">
    <path d="M 193.154779 384.48 
L 195.300276 384.48 
L 195.300276 376.210073 
L 193.154779 376.210073 
z
" clip-path="url(#pca40ccd3d5)" style="fill: #0000ff; opacity: 0.7"/>
   </g>
   <g id="patch_48">
    <path d="M 195.300276 384.48 
L 197.445772 384.48 
L 197.445772 376.300667 
L 195.300276 376.300667 
z
" clip-path="url(#pca40ccd3d5)" style="fill: #0000ff; opacity: 0.7"/>
   </g>
   <g id="patch_49">
    <path d="M 197.445772 384.48 
L 199.591268 384.48 
L 199.591268 376.494797 
L 197.445772 376.494797 
z
" clip-path="url(#pca40ccd3d5)" style="fill: #0000ff; opacity: 0.7"/>
   </g>
   <g id="patch_50">
    <path d="M 199.591268 384.48 
L 201.736765 384.48 
L 201.736765 376.391261 
L 199.591268 376.391261 
z
" clip-path="url(#pca40ccd3d5)" style="fill: #0000ff; opacity: 0.7"/>
   </g>
   <g id="patch_51">
    <path d="M 201.736765 384.48 
L 203.882261 384.48 
L 203.882261 375.718278 
L 201.736765 375.718278 
z
" clip-path="url(#pca40ccd3d5)" style="fill: #0000ff; opacity: 0.7"/>
   </g>
   <g id="patch_52">
    <path d="M 203.882261 384.48 
L 206.027757 384.48 
L 206.027757 375.524148 
L 203.882261 375.524148 
z
" clip-path="url(#pca40ccd3d5)" style="fill: #0000ff; opacity: 0.7"/>
   </g>
   <g id="patch_53">
    <path d="M 206.027757 384.48 
L 208.173254 384.48 
L 208.173254 375.051766 
L 206.027757 375.051766 
z
" clip-path="url(#pca40ccd3d5)" style="fill: #0000ff; opacity: 0.7"/>
   </g>
   <g id="patch_54">
    <path d="M 208.173254 384.48 
L 210.31875 384.48 
L 210.31875 384.48 
L 208.173254 384.48 
z
" clip-path="url(#pca40ccd3d5)" style="fill: #0000ff; opacity: 0.7"/>
   </g>
   <g id="patch_55">
    <path d="M 210.31875 384.48 
L 212.464246 384.48 
L 212.464246 375.019411 
L 210.31875 375.019411 
z
" clip-path="url(#pca40ccd3d5)" style="fill: #0000ff; opacity: 0.7"/>
   </g>
   <g id="patch_56">
    <path d="M 212.464246 384.48 
L 214.609743 384.48 
L 214.609743 374.870578 
L 212.464246 374.870578 
z
" clip-path="url(#pca40ccd3d5)" style="fill: #0000ff; opacity: 0.7"/>
   </g>
   <g id="patch_57">
    <path d="M 214.609743 384.48 
L 216.755239 384.48 
L 216.755239 374.61821 
L 214.609743 374.61821 
z
" clip-path="url(#pca40ccd3d5)" style="fill: #0000ff; opacity: 0.7"/>
   </g>
   <g id="patch_58">
    <path d="M 216.755239 384.48 
L 218.900735 384.48 
L 218.900735 373.621677 
L 216.755239 373.621677 
z
" clip-path="url(#pca40ccd3d5)" style="fill: #0000ff; opacity: 0.7"/>
   </g>
   <g id="patch_59">
    <path d="M 218.900735 384.48 
L 221.046232 384.48 
L 221.046232 374.081117 
L 218.900735 374.081117 
z
" clip-path="url(#pca40ccd3d5)" style="fill: #0000ff; opacity: 0.7"/>
   </g>
   <g id="patch_60">
    <path d="M 221.046232 384.48 
L 223.191728 384.48 
L 223.191728 372.482783 
L 221.046232 372.482783 
z
" clip-path="url(#pca40ccd3d5)" style="fill: #0000ff; opacity: 0.7"/>
   </g>
   <g id="patch_61">
    <path d="M 223.191728 384.48 
L 225.337224 384.48 
L 225.337224 371.952161 
L 223.191728 371.952161 
z
" clip-path="url(#pca40ccd3d5)" style="fill: #0000ff; opacity: 0.7"/>
   </g>
   <g id="patch_62">
    <path d="M 225.337224 384.48 
L 227.482721 384.48 
L 227.482721 372.094523 
L 225.337224 372.094523 
z
" clip-path="url(#pca40ccd3d5)" style="fill: #0000ff; opacity: 0.7"/>
   </g>
   <g id="patch_63">
    <path d="M 227.482721 384.48 
L 229.628217 384.48 
L 229.628217 370.955629 
L 227.482721 370.955629 
z
" clip-path="url(#pca40ccd3d5)" style="fill: #0000ff; opacity: 0.7"/>
   </g>
   <g id="patch_64">
    <path d="M 229.628217 384.48 
L 231.773713 384.48 
L 231.773713 371.104462 
L 229.628217 371.104462 
z
" clip-path="url(#pca40ccd3d5)" style="fill: #0000ff; opacity: 0.7"/>
   </g>
   <g id="patch_65">
    <path d="M 231.773713 384.48 
L 233.91921 384.48 
L 233.91921 371.02681 
L 231.773713 371.02681 
z
" clip-path="url(#pca40ccd3d5)" style="fill: #0000ff; opacity: 0.7"/>
   </g>
   <g id="patch_66">
    <path d="M 233.91921 384.48 
L 236.064706 384.48 
L 236.064706 370.327943 
L 233.91921 370.327943 
z
" clip-path="url(#pca40ccd3d5)" style="fill: #0000ff; opacity: 0.7"/>
   </g>
   <g id="patch_67">
    <path d="M 236.064706 384.48 
L 238.210202 384.48 
L 238.210202 370.560898 
L 236.064706 370.560898 
z
" clip-path="url(#pca40ccd3d5)" style="fill: #0000ff; opacity: 0.7"/>
   </g>
   <g id="patch_68">
    <path d="M 238.210202 384.48 
L 240.355699 384.48 
L 240.355699 368.761963 
L 238.210202 368.761963 
z
" clip-path="url(#pca40ccd3d5)" style="fill: #0000ff; opacity: 0.7"/>
   </g>
   <g id="patch_69">
    <path d="M 240.355699 384.48 
L 242.501195 384.48 
L 242.501195 367.739546 
L 240.355699 367.739546 
z
" clip-path="url(#pca40ccd3d5)" style="fill: #0000ff; opacity: 0.7"/>
   </g>
   <g id="patch_70">
    <path d="M 242.501195 384.48 
L 244.646691 384.48 
L 244.646691 368.186045 
L 242.501195 368.186045 
z
" clip-path="url(#pca40ccd3d5)" style="fill: #0000ff; opacity: 0.7"/>
   </g>
   <g id="patch_71">
    <path d="M 244.646691 384.48 
L 246.792187 384.48 
L 246.792187 367.998386 
L 244.646691 367.998386 
z
" clip-path="url(#pca40ccd3d5)" style="fill: #0000ff; opacity: 0.7"/>
   </g>
   <g id="patch_72">
    <path d="M 246.792187 384.48 
L 248.937684 384.48 
L 248.937684 366.736543 
L 246.792187 366.736543 
z
" clip-path="url(#pca40ccd3d5)" style="fill: #0000ff; opacity: 0.7"/>
   </g>
   <g id="patch_73">
    <path d="M 248.937684 384.48 
L 251.08318 384.48 
L 251.08318 367.396584 
L 248.937684 367.396584 
z
" clip-path="url(#pca40ccd3d5)" style="fill: #0000ff; opacity: 0.7"/>
   </g>
   <g id="patch_74">
    <path d="M 251.08318 384.48 
L 253.228676 384.48 
L 253.228676 366.510058 
L 251.08318 366.510058 
z
" clip-path="url(#pca40ccd3d5)" style="fill: #0000ff; opacity: 0.7"/>
   </g>
   <g id="patch_75">
    <path d="M 253.228676 384.48 
L 255.374173 384.48 
L 255.374173 366.005321 
L 253.228676 366.005321 
z
" clip-path="url(#pca40ccd3d5)" style="fill: #0000ff; opacity: 0.7"/>
   </g>
   <g id="patch_76">
    <path d="M 255.374173 384.48 
L 257.519669 384.48 
L 257.519669 366.535942 
L 255.374173 366.535942 
z
" clip-path="url(#pca40ccd3d5)" style="fill: #0000ff; opacity: 0.7"/>
   </g>
   <g id="patch_77">
    <path d="M 257.519669 384.48 
L 259.665165 384.48 
L 259.665165 365.707655 
L 257.519669 365.707655 
z
" clip-path="url(#pca40ccd3d5)" style="fill: #0000ff; opacity: 0.7"/>
   </g>
   <g id="patch_78">
    <path d="M 259.665165 384.48 
L 261.810662 384.48 
L 261.810662 364.277566 
L 259.665165 364.277566 
z
" clip-path="url(#pca40ccd3d5)" style="fill: #0000ff; opacity: 0.7"/>
   </g>
   <g id="patch_79">
    <path d="M 261.810662 384.48 
L 263.956158 384.48 
L 263.956158 365.028201 
L 261.810662 365.028201 
z
" clip-path="url(#pca40ccd3d5)" style="fill: #0000ff; opacity: 0.7"/>
   </g>
   <g id="patch_80">
    <path d="M 263.956158 384.48 
L 266.101654 384.48 
L 266.101654 364.083436 
L 263.956158 364.083436 
z
" clip-path="url(#pca40ccd3d5)" style="fill: #0000ff; opacity: 0.7"/>
   </g>
   <g id="patch_81">
    <path d="M 266.101654 384.48 
L 268.247151 384.48 
L 268.247151 363.688706 
L 266.101654 363.688706 
z
" clip-path="url(#pca40ccd3d5)" style="fill: #0000ff; opacity: 0.7"/>
   </g>
   <g id="patch_82">
    <path d="M 268.247151 384.48 
L 270.392647 384.48 
L 270.392647 363.759887 
L 268.247151 363.759887 
z
" clip-path="url(#pca40ccd3d5)" style="fill: #0000ff; opacity: 0.7"/>
   </g>
   <g id="patch_83">
    <path d="M 270.392647 384.48 
L 272.538143 384.48 
L 272.538143 363.339272 
L 270.392647 363.339272 
z
" clip-path="url(#pca40ccd3d5)" style="fill: #0000ff; opacity: 0.7"/>
   </g>
   <g id="patch_84">
    <path d="M 272.538143 384.48 
L 274.68364 384.48 
L 274.68364 362.368624 
L 272.538143 362.368624 
z
" clip-path="url(#pca40ccd3d5)" style="fill: #0000ff; opacity: 0.7"/>
   </g>
   <g id="patch_85">
    <path d="M 274.68364 384.48 
L 276.829136 384.48 
L 276.829136 363.080433 
L 274.68364 363.080433 
z
" clip-path="url(#pca40ccd3d5)" style="fill: #0000ff; opacity: 0.7"/>
   </g>
   <g id="patch_86">
    <path d="M 276.829136 384.48 
L 278.974632 384.48 
L 278.974632 362.73747 
L 276.829136 362.73747 
z
" clip-path="url(#pca40ccd3d5)" style="fill: #0000ff; opacity: 0.7"/>
   </g>
   <g id="patch_87">
    <path d="M 278.974632 384.48 
L 281.120129 384.48 
L 281.120129 361.863886 
L 278.974632 361.863886 
z
" clip-path="url(#pca40ccd3d5)" style="fill: #0000ff; opacity: 0.7"/>
   </g>
   <g id="patch_88">
    <path d="M 281.120129 384.48 
L 283.265625 384.48 
L 283.265625 363.080433 
L 281.120129 363.080433 
z
" clip-path="url(#pca40ccd3d5)" style="fill: #0000ff; opacity: 0.7"/>
   </g>
   <g id="patch_89">
    <path d="M 283.265625 384.48 
L 285.411121 384.48 
L 285.411121 362.200378 
L 283.265625 362.200378 
z
" clip-path="url(#pca40ccd3d5)" style="fill: #0000ff; opacity: 0.7"/>
   </g>
   <g id="patch_90">
    <path d="M 285.411121 384.48 
L 287.556618 384.48 
L 287.556618 362.058016 
L 285.411121 362.058016 
z
" clip-path="url(#pca40ccd3d5)" style="fill: #0000ff; opacity: 0.7"/>
   </g>
   <g id="patch_91">
    <path d="M 287.556618 384.48 
L 289.702114 384.48 
L 289.702114 363.028665 
L 287.556618 363.028665 
z
" clip-path="url(#pca40ccd3d5)" style="fill: #0000ff; opacity: 0.7"/>
   </g>
   <g id="patch_92">
    <path d="M 289.702114 384.48 
L 291.84761 384.48 
L 291.84761 362.077429 
L 289.702114 362.077429 
z
" clip-path="url(#pca40ccd3d5)" style="fill: #0000ff; opacity: 0.7"/>
   </g>
   <g id="patch_93">
    <path d="M 291.84761 384.48 
L 293.993107 384.48 
L 293.993107 361.475627 
L 291.84761 361.475627 
z
" clip-path="url(#pca40ccd3d5)" style="fill: #0000ff; opacity: 0.7"/>
   </g>
   <g id="patch_94">
    <path d="M 293.993107 384.48 
L 296.138603 384.48 
L 296.138603 362.912187 
L 293.993107 362.912187 
z
" clip-path="url(#pca40ccd3d5)" style="fill: #0000ff; opacity: 0.7"/>
   </g>
   <g id="patch_95">
    <path d="M 296.138603 384.48 
L 298.284099 384.48 
L 298.284099 362.375095 
L 296.138603 362.375095 
z
" clip-path="url(#pca40ccd3d5)" style="fill: #0000ff; opacity: 0.7"/>
   </g>
   <g id="patch_96">
    <path d="M 298.284099 384.48 
L 300.429596 384.48 
L 300.429596 363.12573 
L 298.284099 363.12573 
z
" clip-path="url(#pca40ccd3d5)" style="fill: #0000ff; opacity: 0.7"/>
   </g>
   <g id="patch_97">
    <path d="M 300.429596 384.48 
L 302.575092 384.48 
L 302.575092 363.7793 
L 300.429596 363.7793 
z
" clip-path="url(#pca40ccd3d5)" style="fill: #0000ff; opacity: 0.7"/>
   </g>
   <g id="patch_98">
    <path d="M 302.575092 384.48 
L 304.720588 384.48 
L 304.720588 362.905716 
L 302.575092 362.905716 
z
" clip-path="url(#pca40ccd3d5)" style="fill: #0000ff; opacity: 0.7"/>
   </g>
   <g id="patch_99">
    <path d="M 304.720588 384.48 
L 306.866085 384.48 
L 306.866085 362.595108 
L 304.720588 362.595108 
z
" clip-path="url(#pca40ccd3d5)" style="fill: #0000ff; opacity: 0.7"/>
   </g>
   <g id="patch_100">
    <path d="M 306.866085 384.48 
L 309.011581 384.48 
L 309.011581 364.128733 
L 306.866085 364.128733 
z
" clip-path="url(#pca40ccd3d5)" style="fill: #0000ff; opacity: 0.7"/>
   </g>
   <g id="patch_101">
    <path d="M 309.011581 384.48 
L 311.157077 384.48 
L 311.157077 363.91519 
L 309.011581 363.91519 
z
" clip-path="url(#pca40ccd3d5)" style="fill: #0000ff; opacity: 0.7"/>
   </g>
   <g id="patch_102">
    <path d="M 311.157077 384.48 
L 313.302574 384.48 
L 313.302574 363.675764 
L 311.157077 363.675764 
z
" clip-path="url(#pca40ccd3d5)" style="fill: #0000ff; opacity: 0.7"/>
   </g>
   <g id="patch_103">
    <path d="M 313.302574 384.48 
L 315.44807 384.48 
L 315.44807 364.879368 
L 313.302574 364.879368 
z
" clip-path="url(#pca40ccd3d5)" style="fill: #0000ff; opacity: 0.7"/>
   </g>
   <g id="patch_104">
    <path d="M 315.44807 384.48 
L 317.593566 384.48 
L 317.593566 363.818126 
L 315.44807 363.818126 
z
" clip-path="url(#pca40ccd3d5)" style="fill: #0000ff; opacity: 0.7"/>
   </g>
   <g id="patch_105">
    <path d="M 317.593566 384.48 
L 319.739062 384.48 
L 319.739062 384.48 
L 317.593566 384.48 
z
" clip-path="url(#pca40ccd3d5)" style="fill: #0000ff; opacity: 0.7"/>
   </g>
   <g id="patch_106">
    <path d="M 319.739062 384.48 
L 321.884559 384.48 
L 321.884559 364.452283 
L 319.739062 364.452283 
z
" clip-path="url(#pca40ccd3d5)" style="fill: #0000ff; opacity: 0.7"/>
   </g>
   <g id="patch_107">
    <path d="M 321.884559 384.48 
L 324.030055 384.48 
L 324.030055 365.047614 
L 321.884559 365.047614 
z
" clip-path="url(#pca40ccd3d5)" style="fill: #0000ff; opacity: 0.7"/>
   </g>
   <g id="patch_108">
    <path d="M 324.030055 384.48 
L 326.175551 384.48 
L 326.175551 365.435873 
L 324.030055 365.435873 
z
" clip-path="url(#pca40ccd3d5)" style="fill: #0000ff; opacity: 0.7"/>
   </g>
   <g id="patch_109">
    <path d="M 326.175551 384.48 
L 328.321048 384.48 
L 328.321048 364.808187 
L 326.175551 364.808187 
z
" clip-path="url(#pca40ccd3d5)" style="fill: #0000ff; opacity: 0.7"/>
   </g>
   <g id="patch_110">
    <path d="M 328.321048 384.48 
L 330.466544 384.48 
L 330.466544 365.642945 
L 328.321048 365.642945 
z
" clip-path="url(#pca40ccd3d5)" style="fill: #0000ff; opacity: 0.7"/>
   </g>
   <g id="patch_111">
    <path d="M 330.466544 384.48 
L 332.61204 384.48 
L 332.61204 365.487641 
L 330.466544 365.487641 
z
" clip-path="url(#pca40ccd3d5)" style="fill: #0000ff; opacity: 0.7"/>
   </g>
   <g id="patch_112">
    <path d="M 332.61204 384.48 
L 334.757537 384.48 
L 334.757537 366.438877 
L 332.61204 366.438877 
z
" clip-path="url(#pca40ccd3d5)" style="fill: #0000ff; opacity: 0.7"/>
   </g>
   <g id="patch_113">
    <path d="M 334.757537 384.48 
L 336.903033 384.48 
L 336.903033 366.639478 
L 334.757537 366.639478 
z
" clip-path="url(#pca40ccd3d5)" style="fill: #0000ff; opacity: 0.7"/>
   </g>
   <g id="patch_114">
    <path d="M 336.903033 384.48 
L 339.048529 384.48 
L 339.048529 367.073034 
L 336.903033 367.073034 
z
" clip-path="url(#pca40ccd3d5)" style="fill: #0000ff; opacity: 0.7"/>
   </g>
   <g id="patch_115">
    <path d="M 339.048529 384.48 
L 341.194026 384.48 
L 341.194026 366.827136 
L 339.048529 366.827136 
z
" clip-path="url(#pca40ccd3d5)" style="fill: #0000ff; opacity: 0.7"/>
   </g>
   <g id="patch_116">
    <path d="M 341.194026 384.48 
L 343.339522 384.48 
L 343.339522 367.843082 
L 341.194026 367.843082 
z
" clip-path="url(#pca40ccd3d5)" style="fill: #0000ff; opacity: 0.7"/>
   </g>
   <g id="patch_117">
    <path d="M 343.339522 384.48 
L 345.485018 384.48 
L 345.485018 367.998386 
L 343.339522 367.998386 
z
" clip-path="url(#pca40ccd3d5)" style="fill: #0000ff; opacity: 0.7"/>
   </g>
   <g id="patch_118">
    <path d="M 345.485018 384.48 
L 347.630515 384.48 
L 347.630515 368.431942 
L 345.485018 368.431942 
z
" clip-path="url(#pca40ccd3d5)" style="fill: #0000ff; opacity: 0.7"/>
   </g>
   <g id="patch_119">
    <path d="M 347.630515 384.48 
L 349.776011 384.48 
L 349.776011 369.292584 
L 347.630515 369.292584 
z
" clip-path="url(#pca40ccd3d5)" style="fill: #0000ff; opacity: 0.7"/>
   </g>
   <g id="patch_120">
    <path d="M 349.776011 384.48 
L 351.921507 384.48 
L 351.921507 369.033744 
L 349.776011 369.033744 
z
" clip-path="url(#pca40ccd3d5)" style="fill: #0000ff; opacity: 0.7"/>
   </g>
   <g id="patch_121">
    <path d="M 351.921507 384.48 
L 354.067004 384.48 
L 354.067004 369.111396 
L 351.921507 369.111396 
z
" clip-path="url(#pca40ccd3d5)" style="fill: #0000ff; opacity: 0.7"/>
   </g>
   <g id="patch_122">
    <path d="M 354.067004 384.48 
L 356.2125 384.48 
L 356.2125 370.036748 
L 354.067004 370.036748 
z
" clip-path="url(#pca40ccd3d5)" style="fill: #0000ff; opacity: 0.7"/>
   </g>
   <g id="patch_123">
    <path d="M 356.2125 384.48 
L 358.357996 384.48 
L 358.357996 369.965567 
L 356.2125 369.965567 
z
" clip-path="url(#pca40ccd3d5)" style="fill: #0000ff; opacity: 0.7"/>
   </g>
   <g id="patch_124">
    <path d="M 358.357996 384.48 
L 360.503493 384.48 
L 360.503493 370.968571 
L 358.357996 370.968571 
z
" clip-path="url(#pca40ccd3d5)" style="fill: #0000ff; opacity: 0.7"/>
   </g>
   <g id="patch_125">
    <path d="M 360.503493 384.48 
L 362.648989 384.48 
L 362.648989 371.570373 
L 360.503493 371.570373 
z
" clip-path="url(#pca40ccd3d5)" style="fill: #0000ff; opacity: 0.7"/>
   </g>
   <g id="patch_126">
    <path d="M 362.648989 384.48 
L 364.794485 384.48 
L 364.794485 371.42154 
L 362.648989 371.42154 
z
" clip-path="url(#pca40ccd3d5)" style="fill: #0000ff; opacity: 0.7"/>
   </g>
   <g id="patch_127">
    <path d="M 364.794485 384.48 
L 366.939982 384.48 
L 366.939982 372.515138 
L 364.794485 372.515138 
z
" clip-path="url(#pca40ccd3d5)" style="fill: #0000ff; opacity: 0.7"/>
   </g>
   <g id="patch_128">
    <path d="M 366.939982 384.48 
L 369.085478 384.48 
L 369.085478 373.058701 
L 366.939982 373.058701 
z
" clip-path="url(#pca40ccd3d5)" style="fill: #0000ff; opacity: 0.7"/>
   </g>
   <g id="patch_129">
    <path d="M 369.085478 384.48 
L 371.230974 384.48 
L 371.230974 373.026346 
L 369.085478 373.026346 
z
" clip-path="url(#pca40ccd3d5)" style="fill: #0000ff; opacity: 0.7"/>
   </g>
   <g id="patch_130">
    <path d="M 371.230974 384.48 
L 373.376471 384.48 
L 373.376471 373.239889 
L 371.230974 373.239889 
z
" clip-path="url(#pca40ccd3d5)" style="fill: #0000ff; opacity: 0.7"/>
   </g>
   <g id="patch_131">
    <path d="M 373.376471 384.48 
L 375.521967 384.48 
L 375.521967 373.77051 
L 373.376471 373.77051 
z
" clip-path="url(#pca40ccd3d5)" style="fill: #0000ff; opacity: 0.7"/>
   </g>
   <g id="patch_132">
    <path d="M 375.521967 384.48 
L 377.667463 384.48 
L 377.667463 374.119943 
L 375.521967 374.119943 
z
" clip-path="url(#pca40ccd3d5)" style="fill: #0000ff; opacity: 0.7"/>
   </g>
   <g id="patch_133">
    <path d="M 377.667463 384.48 
L 379.81296 384.48 
L 379.81296 374.352899 
L 377.667463 374.352899 
z
" clip-path="url(#pca40ccd3d5)" style="fill: #0000ff; opacity: 0.7"/>
   </g>
   <g id="patch_134">
    <path d="M 379.81296 384.48 
L 381.958456 384.48 
L 381.958456 374.663507 
L 379.81296 374.663507 
z
" clip-path="url(#pca40ccd3d5)" style="fill: #0000ff; opacity: 0.7"/>
   </g>
   <g id="patch_135">
    <path d="M 381.958456 384.48 
L 384.103952 384.48 
L 384.103952 375.543561 
L 381.958456 375.543561 
z
" clip-path="url(#pca40ccd3d5)" style="fill: #0000ff; opacity: 0.7"/>
   </g>
   <g id="patch_136">
    <path d="M 384.103952 384.48 
L 386.249449 384.48 
L 386.249449 375.672981 
L 384.103952 375.672981 
z
" clip-path="url(#pca40ccd3d5)" style="fill: #0000ff; opacity: 0.7"/>
   </g>
   <g id="patch_137">
    <path d="M 386.249449 384.48 
L 388.394945 384.48 
L 388.394945 376.501268 
L 386.249449 376.501268 
z
" clip-path="url(#pca40ccd3d5)" style="fill: #0000ff; opacity: 0.7"/>
   </g>
   <g id="patch_138">
    <path d="M 388.394945 384.48 
L 390.540441 384.48 
L 390.540441 376.507739 
L 388.394945 376.507739 
z
" clip-path="url(#pca40ccd3d5)" style="fill: #0000ff; opacity: 0.7"/>
   </g>
   <g id="patch_139">
    <path d="M 390.540441 384.48 
L 392.685937 384.48 
L 392.685937 376.540094 
L 390.540441 376.540094 
z
" clip-path="url(#pca40ccd3d5)" style="fill: #0000ff; opacity: 0.7"/>
   </g>
   <g id="patch_140">
    <path d="M 392.685937 384.48 
L 394.831434 384.48 
L 394.831434 376.993063 
L 392.685937 376.993063 
z
" clip-path="url(#pca40ccd3d5)" style="fill: #0000ff; opacity: 0.7"/>
   </g>
   <g id="patch_141">
    <path d="M 394.831434 384.48 
L 396.97693 384.48 
L 396.97693 377.090128 
L 394.831434 377.090128 
z
" clip-path="url(#pca40ccd3d5)" style="fill: #0000ff; opacity: 0.7"/>
   </g>
   <g id="patch_142">
    <path d="M 396.97693 384.48 
L 399.122426 384.48 
L 399.122426 377.083657 
L 396.97693 377.083657 
z
" clip-path="url(#pca40ccd3d5)" style="fill: #0000ff; opacity: 0.7"/>
   </g>
   <g id="patch_143">
    <path d="M 399.122426 384.48 
L 401.267923 384.48 
L 401.267923 377.957241 
L 399.122426 377.957241 
z
" clip-path="url(#pca40ccd3d5)" style="fill: #0000ff; opacity: 0.7"/>
   </g>
   <g id="patch_144">
    <path d="M 401.267923 384.48 
L 403.413419 384.48 
L 403.413419 378.125487 
L 401.267923 378.125487 
z
" clip-path="url(#pca40ccd3d5)" style="fill: #0000ff; opacity: 0.7"/>
   </g>
   <g id="patch_145">
    <path d="M 403.413419 384.48 
L 405.558915 384.48 
L 405.558915 377.996067 
L 403.413419 377.996067 
z
" clip-path="url(#pca40ccd3d5)" style="fill: #0000ff; opacity: 0.7"/>
   </g>
   <g id="patch_146">
    <path d="M 405.558915 384.48 
L 407.704412 384.48 
L 407.704412 378.591398 
L 405.558915 378.591398 
z
" clip-path="url(#pca40ccd3d5)" style="fill: #0000ff; opacity: 0.7"/>
   </g>
   <g id="patch_147">
    <path d="M 407.704412 384.48 
L 409.849908 384.48 
L 409.849908 378.643166 
L 407.704412 378.643166 
z
" clip-path="url(#pca40ccd3d5)" style="fill: #0000ff; opacity: 0.7"/>
   </g>
   <g id="patch_148">
    <path d="M 409.849908 384.48 
L 411.995404 384.48 
L 411.995404 378.740231 
L 409.849908 378.740231 
z
" clip-path="url(#pca40ccd3d5)" style="fill: #0000ff; opacity: 0.7"/>
   </g>
   <g id="patch_149">
    <path d="M 411.995404 384.48 
L 414.140901 384.48 
L 414.140901 379.096135 
L 411.995404 379.096135 
z
" clip-path="url(#pca40ccd3d5)" style="fill: #0000ff; opacity: 0.7"/>
   </g>
   <g id="patch_150">
    <path d="M 414.140901 384.48 
L 416.286397 384.48 
L 416.286397 379.05731 
L 414.140901 379.05731 
z
" clip-path="url(#pca40ccd3d5)" style="fill: #0000ff; opacity: 0.7"/>
   </g>
   <g id="patch_151">
    <path d="M 416.286397 384.48 
L 418.431893 384.48 
L 418.431893 379.620286 
L 416.286397 379.620286 
z
" clip-path="url(#pca40ccd3d5)" style="fill: #0000ff; opacity: 0.7"/>
   </g>
   <g id="patch_152">
    <path d="M 418.431893 384.48 
L 420.57739 384.48 
L 420.57739 379.892067 
L 418.431893 379.892067 
z
" clip-path="url(#pca40ccd3d5)" style="fill: #0000ff; opacity: 0.7"/>
   </g>
   <g id="patch_153">
    <path d="M 420.57739 384.48 
L 422.722886 384.48 
L 422.722886 380.099139 
L 420.57739 380.099139 
z
" clip-path="url(#pca40ccd3d5)" style="fill: #0000ff; opacity: 0.7"/>
   </g>
   <g id="patch_154">
    <path d="M 422.722886 384.48 
L 424.868382 384.48 
L 424.868382 379.652641 
L 422.722886 379.652641 
z
" clip-path="url(#pca40ccd3d5)" style="fill: #0000ff; opacity: 0.7"/>
   </g>
   <g id="patch_155">
    <path d="M 424.868382 384.48 
L 427.013879 384.48 
L 427.013879 380.125023 
L 424.868382 380.125023 
z
" clip-path="url(#pca40ccd3d5)" style="fill: #0000ff; opacity: 0.7"/>
   </g>
   <g id="patch_156">
    <path d="M 427.013879 384.48 
L 429.159375 384.48 
L 429.159375 384.48 
L 427.013879 384.48 
z
" clip-path="url(#pca40ccd3d5)" style="fill: #0000ff; opacity: 0.7"/>
   </g>
   <g id="patch_157">
    <path d="M 429.159375 384.48 
L 431.304871 384.48 
L 431.304871 380.42916 
L 429.159375 380.42916 
z
" clip-path="url(#pca40ccd3d5)" style="fill: #0000ff; opacity: 0.7"/>
   </g>
   <g id="patch_158">
    <path d="M 431.304871 384.48 
L 433.450368 384.48 
L 433.450368 380.215617 
L 431.304871 380.215617 
z
" clip-path="url(#pca40ccd3d5)" style="fill: #0000ff; opacity: 0.7"/>
   </g>
   <g id="patch_159">
    <path d="M 433.450368 384.48 
L 435.595864 384.48 
L 435.595864 380.707412 
L 433.450368 380.707412 
z
" clip-path="url(#pca40ccd3d5)" style="fill: #0000ff; opacity: 0.7"/>
   </g>
   <g id="patch_160">
    <path d="M 435.595864 384.48 
L 437.74136 384.48 
L 437.74136 380.590934 
L 435.595864 380.590934 
z
" clip-path="url(#pca40ccd3d5)" style="fill: #0000ff; opacity: 0.7"/>
   </g>
   <g id="patch_161">
    <path d="M 437.74136 384.48 
L 439.886857 384.48 
L 439.886857 381.01802 
L 437.74136 381.01802 
z
" clip-path="url(#pca40ccd3d5)" style="fill: #0000ff; opacity: 0.7"/>
   </g>
   <g id="patch_162">
    <path d="M 439.886857 384.48 
L 442.032353 384.48 
L 442.032353 381.613351 
L 439.886857 381.613351 
z
" clip-path="url(#pca40ccd3d5)" style="fill: #0000ff; opacity: 0.7"/>
   </g>
   <g id="patch_163">
    <path d="M 442.032353 384.48 
L 444.177849 384.48 
L 444.177849 381.050375 
L 442.032353 381.050375 
z
" clip-path="url(#pca40ccd3d5)" style="fill: #0000ff; opacity: 0.7"/>
   </g>
   <g id="patch_164">
    <path d="M 444.177849 384.48 
L 446.323346 384.48 
L 446.323346 381.102143 
L 444.177849 381.102143 
z
" clip-path="url(#pca40ccd3d5)" style="fill: #0000ff; opacity: 0.7"/>
   </g>
   <g id="patch_165">
    <path d="M 446.323346 384.48 
L 448.468842 384.48 
L 448.468842 381.393337 
L 446.323346 381.393337 
z
" clip-path="url(#pca40ccd3d5)" style="fill: #0000ff; opacity: 0.7"/>
   </g>
   <g id="patch_166">
    <path d="M 448.468842 384.48 
L 450.614338 384.48 
L 450.614338 381.360982 
L 448.468842 381.360982 
z
" clip-path="url(#pca40ccd3d5)" style="fill: #0000ff; opacity: 0.7"/>
   </g>
   <g id="patch_167">
    <path d="M 450.614338 384.48 
L 452.759835 384.48 
L 452.759835 381.574525 
L 450.614338 381.574525 
z
" clip-path="url(#pca40ccd3d5)" style="fill: #0000ff; opacity: 0.7"/>
   </g>
   <g id="patch_168">
    <path d="M 452.759835 384.48 
L 454.905331 384.48 
L 454.905331 381.820423 
L 452.759835 381.820423 
z
" clip-path="url(#pca40ccd3d5)" style="fill: #0000ff; opacity: 0.7"/>
   </g>
   <g id="patch_169">
    <path d="M 454.905331 384.48 
L 457.050827 384.48 
L 457.050827 381.820423 
L 454.905331 381.820423 
z
" clip-path="url(#pca40ccd3d5)" style="fill: #0000ff; opacity: 0.7"/>
   </g>
   <g id="patch_170">
    <path d="M 457.050827 384.48 
L 459.196324 384.48 
L 459.196324 382.13103 
L 457.050827 382.13103 
z
" clip-path="url(#pca40ccd3d5)" style="fill: #0000ff; opacity: 0.7"/>
   </g>
   <g id="patch_171">
    <path d="M 459.196324 384.48 
L 461.34182 384.48 
L 461.34182 382.221624 
L 459.196324 382.221624 
z
" clip-path="url(#pca40ccd3d5)" style="fill: #0000ff; opacity: 0.7"/>
   </g>
   <g id="patch_172">
    <path d="M 461.34182 384.48 
L 463.487316 384.48 
L 463.487316 382.26045 
L 461.34182 382.26045 
z
" clip-path="url(#pca40ccd3d5)" style="fill: #0000ff; opacity: 0.7"/>
   </g>
   <g id="patch_173">
    <path d="M 463.487316 384.48 
L 465.632812 384.48 
L 465.632812 382.266921 
L 463.487316 382.266921 
z
" clip-path="url(#pca40ccd3d5)" style="fill: #0000ff; opacity: 0.7"/>
   </g>
   <g id="patch_174">
    <path d="M 465.632812 384.48 
L 467.778309 384.48 
L 467.778309 382.273392 
L 465.632812 382.273392 
z
" clip-path="url(#pca40ccd3d5)" style="fill: #0000ff; opacity: 0.7"/>
   </g>
   <g id="patch_175">
    <path d="M 467.778309 384.48 
L 469.923805 384.48 
L 469.923805 382.473993 
L 467.778309 382.473993 
z
" clip-path="url(#pca40ccd3d5)" style="fill: #0000ff; opacity: 0.7"/>
   </g>
   <g id="patch_176">
    <path d="M 469.923805 384.48 
L 472.069301 384.48 
L 472.069301 382.266921 
L 469.923805 382.266921 
z
" clip-path="url(#pca40ccd3d5)" style="fill: #0000ff; opacity: 0.7"/>
   </g>
   <g id="patch_177">
    <path d="M 472.069301 384.48 
L 474.214798 384.48 
L 474.214798 382.726361 
L 472.069301 382.726361 
z
" clip-path="url(#pca40ccd3d5)" style="fill: #0000ff; opacity: 0.7"/>
   </g>
   <g id="patch_178">
    <path d="M 474.214798 384.48 
L 476.360294 384.48 
L 476.360294 382.506348 
L 474.214798 382.506348 
z
" clip-path="url(#pca40ccd3d5)" style="fill: #0000ff; opacity: 0.7"/>
   </g>
   <g id="patch_179">
    <path d="M 476.360294 384.48 
L 478.50579 384.48 
L 478.50579 382.409283 
L 476.360294 382.409283 
z
" clip-path="url(#pca40ccd3d5)" style="fill: #0000ff; opacity: 0.7"/>
   </g>
   <g id="patch_180">
    <path d="M 478.50579 384.48 
L 480.651287 384.48 
L 480.651287 382.609884 
L 478.50579 382.609884 
z
" clip-path="url(#pca40ccd3d5)" style="fill: #0000ff; opacity: 0.7"/>
   </g>
   <g id="patch_181">
    <path d="M 480.651287 384.48 
L 482.796783 384.48 
L 482.796783 382.726361 
L 480.651287 382.726361 
z
" clip-path="url(#pca40ccd3d5)" style="fill: #0000ff; opacity: 0.7"/>
   </g>
   <g id="patch_182">
    <path d="M 482.796783 384.48 
L 484.942279 384.48 
L 484.942279 382.829897 
L 482.796783 382.829897 
z
" clip-path="url(#pca40ccd3d5)" style="fill: #0000ff; opacity: 0.7"/>
   </g>
   <g id="patch_183">
    <path d="M 484.942279 384.48 
L 487.087776 384.48 
L 487.087776 382.894607 
L 484.942279 382.894607 
z
" clip-path="url(#pca40ccd3d5)" style="fill: #0000ff; opacity: 0.7"/>
   </g>
   <g id="patch_184">
    <path d="M 487.087776 384.48 
L 489.233272 384.48 
L 489.233272 382.933433 
L 487.087776 382.933433 
z
" clip-path="url(#pca40ccd3d5)" style="fill: #0000ff; opacity: 0.7"/>
   </g>
   <g id="patch_185">
    <path d="M 489.233272 384.48 
L 491.378768 384.48 
L 491.378768 382.804013 
L 489.233272 382.804013 
z
" clip-path="url(#pca40ccd3d5)" style="fill: #0000ff; opacity: 0.7"/>
   </g>
   <g id="patch_186">
    <path d="M 491.378768 384.48 
L 493.524265 384.48 
L 493.524265 382.998143 
L 491.378768 382.998143 
z
" clip-path="url(#pca40ccd3d5)" style="fill: #0000ff; opacity: 0.7"/>
   </g>
   <g id="patch_187">
    <path d="M 493.524265 384.48 
L 495.669761 384.48 
L 495.669761 383.250512 
L 493.524265 383.250512 
z
" clip-path="url(#pca40ccd3d5)" style="fill: #0000ff; opacity: 0.7"/>
   </g>
   <g id="patch_188">
    <path d="M 495.669761 384.48 
L 497.815257 384.48 
L 497.815257 382.939904 
L 495.669761 382.939904 
z
" clip-path="url(#pca40ccd3d5)" style="fill: #0000ff; opacity: 0.7"/>
   </g>
   <g id="patch_189">
    <path d="M 497.815257 384.48 
L 499.960754 384.48 
L 499.960754 383.282867 
L 497.815257 383.282867 
z
" clip-path="url(#pca40ccd3d5)" style="fill: #0000ff; opacity: 0.7"/>
   </g>
   <g id="patch_190">
    <path d="M 499.960754 384.48 
L 502.10625 384.48 
L 502.10625 383.250512 
L 499.960754 383.250512 
z
" clip-path="url(#pca40ccd3d5)" style="fill: #0000ff; opacity: 0.7"/>
   </g>
   <g id="patch_191">
    <path d="M 502.10625 384.48 
L 504.251746 384.48 
L 504.251746 383.218157 
L 502.10625 383.218157 
z
" clip-path="url(#pca40ccd3d5)" style="fill: #0000ff; opacity: 0.7"/>
   </g>
   <g id="patch_192">
    <path d="M 504.251746 384.48 
L 506.397243 384.48 
L 506.397243 383.50288 
L 504.251746 383.50288 
z
" clip-path="url(#pca40ccd3d5)" style="fill: #0000ff; opacity: 0.7"/>
   </g>
   <g id="patch_193">
    <path d="M 506.397243 384.48 
L 508.542739 384.48 
L 508.542739 383.43817 
L 506.397243 383.43817 
z
" clip-path="url(#pca40ccd3d5)" style="fill: #0000ff; opacity: 0.7"/>
   </g>
   <g id="patch_194">
    <path d="M 508.542739 384.48 
L 510.688235 384.48 
L 510.688235 383.179331 
L 508.542739 383.179331 
z
" clip-path="url(#pca40ccd3d5)" style="fill: #0000ff; opacity: 0.7"/>
   </g>
   <g id="patch_195">
    <path d="M 510.688235 384.48 
L 512.833732 384.48 
L 512.833732 383.464054 
L 510.688235 383.464054 
z
" clip-path="url(#pca40ccd3d5)" style="fill: #0000ff; opacity: 0.7"/>
   </g>
   <g id="patch_196">
    <path d="M 512.833732 384.48 
L 514.979228 384.48 
L 514.979228 383.321693 
L 512.833732 383.321693 
z
" clip-path="url(#pca40ccd3d5)" style="fill: #0000ff; opacity: 0.7"/>
   </g>
   <g id="patch_197">
    <path d="M 514.979228 384.48 
L 517.124724 384.48 
L 517.124724 383.464054 
L 514.979228 383.464054 
z
" clip-path="url(#pca40ccd3d5)" style="fill: #0000ff; opacity: 0.7"/>
   </g>
   <g id="patch_198">
    <path d="M 517.124724 384.48 
L 519.270221 384.48 
L 519.270221 383.593474 
L 517.124724 383.593474 
z
" clip-path="url(#pca40ccd3d5)" style="fill: #0000ff; opacity: 0.7"/>
   </g>
   <g id="patch_199">
    <path d="M 519.270221 384.48 
L 521.415717 384.48 
L 521.415717 383.593474 
L 519.270221 383.593474 
z
" clip-path="url(#pca40ccd3d5)" style="fill: #0000ff; opacity: 0.7"/>
   </g>
   <g id="patch_200">
    <path d="M 521.415717 384.48 
L 523.561213 384.48 
L 523.561213 383.574061 
L 521.415717 383.574061 
z
" clip-path="url(#pca40ccd3d5)" style="fill: #0000ff; opacity: 0.7"/>
   </g>
   <g id="patch_201">
    <path d="M 523.561213 384.48 
L 525.70671 384.48 
L 525.70671 383.625829 
L 523.561213 383.625829 
z
" clip-path="url(#pca40ccd3d5)" style="fill: #0000ff; opacity: 0.7"/>
   </g>
   <g id="patch_202">
    <path d="M 525.70671 384.48 
L 527.852206 384.48 
L 527.852206 383.651713 
L 525.70671 383.651713 
z
" clip-path="url(#pca40ccd3d5)" style="fill: #0000ff; opacity: 0.7"/>
   </g>
   <g id="patch_203">
    <path d="M 527.852206 384.48 
L 529.997702 384.48 
L 529.997702 383.735836 
L 527.852206 383.735836 
z
" clip-path="url(#pca40ccd3d5)" style="fill: #0000ff; opacity: 0.7"/>
   </g>
   <g id="patch_204">
    <path d="M 529.997702 384.48 
L 532.143199 384.48 
L 532.143199 383.69701 
L 529.997702 383.69701 
z
" clip-path="url(#pca40ccd3d5)" style="fill: #0000ff; opacity: 0.7"/>
   </g>
   <g id="patch_205">
    <path d="M 532.143199 384.48 
L 534.288695 384.48 
L 534.288695 383.76172 
L 532.143199 383.76172 
z
" clip-path="url(#pca40ccd3d5)" style="fill: #0000ff; opacity: 0.7"/>
   </g>
   <g id="patch_206">
    <path d="M 534.288695 384.48 
L 536.434191 384.48 
L 536.434191 383.722894 
L 534.288695 383.722894 
z
" clip-path="url(#pca40ccd3d5)" style="fill: #0000ff; opacity: 0.7"/>
   </g>
   <g id="patch_207">
    <path d="M 536.434191 384.48 
L 538.579687 384.48 
L 538.579687 384.48 
L 536.434191 384.48 
z
" clip-path="url(#pca40ccd3d5)" style="fill: #0000ff; opacity: 0.7"/>
   </g>
   <g id="patch_208">
    <path d="M 538.579687 384.48 
L 540.725184 384.48 
L 540.725184 383.755249 
L 538.579687 383.755249 
z
" clip-path="url(#pca40ccd3d5)" style="fill: #0000ff; opacity: 0.7"/>
   </g>
   <g id="patch_209">
    <path d="M 540.725184 384.48 
L 542.87068 384.48 
L 542.87068 383.787604 
L 540.725184 383.787604 
z
" clip-path="url(#pca40ccd3d5)" style="fill: #0000ff; opacity: 0.7"/>
   </g>
   <g id="patch_210">
    <path d="M 542.87068 384.48 
L 545.016176 384.48 
L 545.016176 383.794075 
L 542.87068 383.794075 
z
" clip-path="url(#pca40ccd3d5)" style="fill: #0000ff; opacity: 0.7"/>
   </g>
   <g id="patch_211">
    <path d="M 545.016176 384.48 
L 547.161673 384.48 
L 547.161673 383.781133 
L 545.016176 383.781133 
z
" clip-path="url(#pca40ccd3d5)" style="fill: #0000ff; opacity: 0.7"/>
   </g>
   <g id="patch_212">
    <path d="M 547.161673 384.48 
L 549.307169 384.48 
L 549.307169 383.878198 
L 547.161673 383.878198 
z
" clip-path="url(#pca40ccd3d5)" style="fill: #0000ff; opacity: 0.7"/>
   </g>
   <g id="patch_213">
    <path d="M 549.307169 384.48 
L 551.452665 384.48 
L 551.452665 383.910553 
L 549.307169 383.910553 
z
" clip-path="url(#pca40ccd3d5)" style="fill: #0000ff; opacity: 0.7"/>
   </g>
   <g id="patch_214">
    <path d="M 551.452665 384.48 
L 553.598162 384.48 
L 553.598162 383.845843 
L 551.452665 383.845843 
z
" clip-path="url(#pca40ccd3d5)" style="fill: #0000ff; opacity: 0.7"/>
   </g>
   <g id="patch_215">
    <path d="M 553.598162 384.48 
L 555.743658 384.48 
L 555.743658 383.871727 
L 553.598162 383.871727 
z
" clip-path="url(#pca40ccd3d5)" style="fill: #0000ff; opacity: 0.7"/>
   </g>
   <g id="patch_216">
    <path d="M 555.743658 384.48 
L 557.889154 384.48 
L 557.889154 383.936437 
L 555.743658 383.936437 
z
" clip-path="url(#pca40ccd3d5)" style="fill: #0000ff; opacity: 0.7"/>
   </g>
   <g id="patch_217">
    <path d="M 557.889154 384.48 
L 560.034651 384.48 
L 560.034651 383.858785 
L 557.889154 383.858785 
z
" clip-path="url(#pca40ccd3d5)" style="fill: #0000ff; opacity: 0.7"/>
   </g>
   <g id="patch_218">
    <path d="M 560.034651 384.48 
L 562.180147 384.48 
L 562.180147 383.95585 
L 560.034651 383.95585 
z
" clip-path="url(#pca40ccd3d5)" style="fill: #0000ff; opacity: 0.7"/>
   </g>
   <g id="patch_219">
    <path d="M 562.180147 384.48 
L 564.325643 384.48 
L 564.325643 383.975263 
L 562.180147 383.975263 
z
" clip-path="url(#pca40ccd3d5)" style="fill: #0000ff; opacity: 0.7"/>
   </g>
   <g id="patch_220">
    <path d="M 564.325643 384.48 
L 566.47114 384.48 
L 566.47114 384.039973 
L 564.325643 384.039973 
z
" clip-path="url(#pca40ccd3d5)" style="fill: #0000ff; opacity: 0.7"/>
   </g>
   <g id="patch_221">
    <path d="M 566.47114 384.48 
L 568.616636 384.48 
L 568.616636 384.014089 
L 566.47114 384.014089 
z
" clip-path="url(#pca40ccd3d5)" style="fill: #0000ff; opacity: 0.7"/>
   </g>
   <g id="patch_222">
    <path d="M 568.616636 384.48 
L 570.762132 384.48 
L 570.762132 384.08527 
L 568.616636 384.08527 
z
" clip-path="url(#pca40ccd3d5)" style="fill: #0000ff; opacity: 0.7"/>
   </g>
   <g id="patch_223">
    <path d="M 570.762132 384.48 
L 572.907629 384.48 
L 572.907629 384.059386 
L 570.762132 384.059386 
z
" clip-path="url(#pca40ccd3d5)" style="fill: #0000ff; opacity: 0.7"/>
   </g>
   <g id="patch_224">
    <path d="M 572.907629 384.48 
L 575.053125 384.48 
L 575.053125 384.091741 
L 572.907629 384.091741 
z
" clip-path="url(#pca40ccd3d5)" style="fill: #0000ff; opacity: 0.7"/>
   </g>
   <g id="patch_225">
    <path d="M 575.053125 384.48 
L 577.198621 384.48 
L 577.198621 384.078799 
L 575.053125 384.078799 
z
" clip-path="url(#pca40ccd3d5)" style="fill: #0000ff; opacity: 0.7"/>
   </g>
   <g id="patch_226">
    <path d="M 577.198621 384.48 
L 579.344118 384.48 
L 579.344118 384.169392 
L 577.198621 384.169392 
z
" clip-path="url(#pca40ccd3d5)" style="fill: #0000ff; opacity: 0.7"/>
   </g>
   <g id="patch_227">
    <path d="M 579.344118 384.48 
L 581.489614 384.48 
L 581.489614 383.981734 
L 579.344118 383.981734 
z
" clip-path="url(#pca40ccd3d5)" style="fill: #0000ff; opacity: 0.7"/>
   </g>
   <g id="patch_228">
    <path d="M 581.489614 384.48 
L 583.63511 384.48 
L 583.63511 384.175863 
L 581.489614 384.175863 
z
" clip-path="url(#pca40ccd3d5)" style="fill: #0000ff; opacity: 0.7"/>
   </g>
   <g id="patch_229">
    <path d="M 583.63511 384.48 
L 585.780607 384.48 
L 585.780607 384.149979 
L 583.63511 384.149979 
z
" clip-path="url(#pca40ccd3d5)" style="fill: #0000ff; opacity: 0.7"/>
   </g>
   <g id="patch_230">
    <path d="M 585.780607 384.48 
L 587.926103 384.48 
L 587.926103 384.149979 
L 585.780607 384.149979 
z
" clip-path="url(#pca40ccd3d5)" style="fill: #0000ff; opacity: 0.7"/>
   </g>
   <g id="patch_231">
    <path d="M 587.926103 384.48 
L 590.071599 384.48 
L 590.071599 384.182334 
L 587.926103 384.182334 
z
" clip-path="url(#pca40ccd3d5)" style="fill: #0000ff; opacity: 0.7"/>
   </g>
   <g id="patch_232">
    <path d="M 590.071599 384.48 
L 592.217096 384.48 
L 592.217096 384.188805 
L 590.071599 384.188805 
z
" clip-path="url(#pca40ccd3d5)" style="fill: #0000ff; opacity: 0.7"/>
   </g>
   <g id="patch_233">
    <path d="M 592.217096 384.48 
L 594.362592 384.48 
L 594.362592 384.169392 
L 592.217096 384.169392 
z
" clip-path="url(#pca40ccd3d5)" style="fill: #0000ff; opacity: 0.7"/>
   </g>
   <g id="patch_234">
    <path d="M 594.362592 384.48 
L 596.508088 384.48 
L 596.508088 384.182334 
L 594.362592 384.182334 
z
" clip-path="url(#pca40ccd3d5)" style="fill: #0000ff; opacity: 0.7"/>
   </g>
   <g id="patch_235">
    <path d="M 596.508088 384.48 
L 598.653585 384.48 
L 598.653585 384.182334 
L 596.508088 384.182334 
z
" clip-path="url(#pca40ccd3d5)" style="fill: #0000ff; opacity: 0.7"/>
   </g>
   <g id="patch_236">
    <path d="M 598.653585 384.48 
L 600.799081 384.48 
L 600.799081 384.240573 
L 598.653585 384.240573 
z
" clip-path="url(#pca40ccd3d5)" style="fill: #0000ff; opacity: 0.7"/>
   </g>
   <g id="patch_237">
    <path d="M 600.799081 384.48 
L 602.944577 384.48 
L 602.944577 384.227631 
L 600.799081 384.227631 
z
" clip-path="url(#pca40ccd3d5)" style="fill: #0000ff; opacity: 0.7"/>
   </g>
   <g id="patch_238">
    <path d="M 602.944577 384.48 
L 605.090074 384.48 
L 605.090074 384.298812 
L 602.944577 384.298812 
z
" clip-path="url(#pca40ccd3d5)" style="fill: #0000ff; opacity: 0.7"/>
   </g>
   <g id="patch_239">
    <path d="M 605.090074 384.48 
L 607.23557 384.48 
L 607.23557 384.22116 
L 605.090074 384.22116 
z
" clip-path="url(#pca40ccd3d5)" style="fill: #0000ff; opacity: 0.7"/>
   </g>
   <g id="patch_240">
    <path d="M 607.23557 384.48 
L 609.381066 384.48 
L 609.381066 384.311754 
L 607.23557 384.311754 
z
" clip-path="url(#pca40ccd3d5)" style="fill: #0000ff; opacity: 0.7"/>
   </g>
   <g id="patch_241">
    <path d="M 609.381066 384.48 
L 611.526562 384.48 
L 611.526562 384.259986 
L 609.381066 384.259986 
z
" clip-path="url(#pca40ccd3d5)" style="fill: #0000ff; opacity: 0.7"/>
   </g>
   <g id="patch_242">
    <path d="M 611.526562 384.48 
L 613.672059 384.48 
L 613.672059 384.337638 
L 611.526562 384.337638 
z
" clip-path="url(#pca40ccd3d5)" style="fill: #0000ff; opacity: 0.7"/>
   </g>
   <g id="patch_243">
    <path d="M 613.672059 384.48 
L 615.817555 384.48 
L 615.817555 384.292341 
L 613.672059 384.292341 
z
" clip-path="url(#pca40ccd3d5)" style="fill: #0000ff; opacity: 0.7"/>
   </g>
   <g id="patch_244">
    <path d="M 615.817555 384.48 
L 617.963051 384.48 
L 617.963051 384.311754 
L 615.817555 384.311754 
z
" clip-path="url(#pca40ccd3d5)" style="fill: #0000ff; opacity: 0.7"/>
   </g>
   <g id="patch_245">
    <path d="M 617.963051 384.48 
L 620.108548 384.48 
L 620.108548 384.279399 
L 617.963051 384.279399 
z
" clip-path="url(#pca40ccd3d5)" style="fill: #0000ff; opacity: 0.7"/>
   </g>
   <g id="patch_246">
    <path d="M 620.108548 384.48 
L 622.254044 384.48 
L 622.254044 384.305283 
L 620.108548 384.305283 
z
" clip-path="url(#pca40ccd3d5)" style="fill: #0000ff; opacity: 0.7"/>
   </g>
   <g id="patch_247">
    <path d="M 622.254044 384.48 
L 624.39954 384.48 
L 624.39954 384.247044 
L 622.254044 384.247044 
z
" clip-path="url(#pca40ccd3d5)" style="fill: #0000ff; opacity: 0.7"/>
   </g>
   <g id="patch_248">
    <path d="M 624.39954 384.48 
L 626.545037 384.48 
L 626.545037 384.357051 
L 624.39954 384.357051 
z
" clip-path="url(#pca40ccd3d5)" style="fill: #0000ff; opacity: 0.7"/>
   </g>
   <g id="patch_249">
    <path d="M 626.545037 384.48 
L 628.690533 384.48 
L 628.690533 384.35058 
L 626.545037 384.35058 
z
" clip-path="url(#pca40ccd3d5)" style="fill: #0000ff; opacity: 0.7"/>
   </g>
   <g id="patch_250">
    <path d="M 628.690533 384.48 
L 630.836029 384.48 
L 630.836029 384.389406 
L 628.690533 384.389406 
z
" clip-path="url(#pca40ccd3d5)" style="fill: #0000ff; opacity: 0.7"/>
   </g>
   <g id="patch_251">
    <path d="M 630.836029 384.48 
L 632.981526 384.48 
L 632.981526 384.331167 
L 630.836029 384.331167 
z
" clip-path="url(#pca40ccd3d5)" style="fill: #0000ff; opacity: 0.7"/>
   </g>
   <g id="patch_252">
    <path d="M 632.981526 384.48 
L 635.127022 384.48 
L 635.127022 384.324696 
L 632.981526 384.324696 
z
" clip-path="url(#pca40ccd3d5)" style="fill: #0000ff; opacity: 0.7"/>
   </g>
   <g id="patch_253">
    <path d="M 635.127022 384.48 
L 637.272518 384.48 
L 637.272518 384.41529 
L 635.127022 384.41529 
z
" clip-path="url(#pca40ccd3d5)" style="fill: #0000ff; opacity: 0.7"/>
   </g>
   <g id="patch_254">
    <path d="M 637.272518 384.48 
L 639.418015 384.48 
L 639.418015 384.389406 
L 637.272518 384.389406 
z
" clip-path="url(#pca40ccd3d5)" style="fill: #0000ff; opacity: 0.7"/>
   </g>
   <g id="patch_255">
    <path d="M 639.418015 384.48 
L 641.563511 384.48 
L 641.563511 384.369993 
L 639.418015 384.369993 
z
" clip-path="url(#pca40ccd3d5)" style="fill: #0000ff; opacity: 0.7"/>
   </g>
   <g id="patch_256">
    <path d="M 641.563511 384.48 
L 643.709007 384.48 
L 643.709007 384.35058 
L 641.563511 384.35058 
z
" clip-path="url(#pca40ccd3d5)" style="fill: #0000ff; opacity: 0.7"/>
   </g>
   <g id="patch_257">
    <path d="M 643.709007 384.48 
L 645.854504 384.48 
L 645.854504 384.344109 
L 643.709007 384.344109 
z
" clip-path="url(#pca40ccd3d5)" style="fill: #0000ff; opacity: 0.7"/>
   </g>
   <g id="patch_258">
    <path d="M 645.854504 384.48 
L 648 384.48 
L 648 379.969719 
L 645.854504 379.969719 
z
" clip-path="url(#pca40ccd3d5)" style="fill: #0000ff; opacity: 0.7"/>
   </g>
   <g id="matplotlib.axis_1">
    <g id="xtick_1">
     <g id="line2d_1">
      <defs>
       <path id="m8d5af43a73" d="M 0 0 
L 0 3.5 
" style="stroke: #000000; stroke-width: 0.8"/>
      </defs>
      <g>
       <use xlink:href="#m8d5af43a73" x="90" y="384.48" style="stroke: #000000; stroke-width: 0.8"/>
      </g>
     </g>
     <g id="text_1">
      <!-- 0 -->
      <g transform="translate(86.81875 399.078438) scale(0.1 -0.1)">
       <defs>
        <path id="DejaVuSans-30" d="M 2034 4250 
Q 1547 4250 1301 3770 
Q 1056 3291 1056 2328 
Q 1056 1369 1301 889 
Q 1547 409 2034 409 
Q 2525 409 2770 889 
Q 3016 1369 3016 2328 
Q 3016 3291 2770 3770 
Q 2525 4250 2034 4250 
z
M 2034 4750 
Q 2819 4750 3233 4129 
Q 3647 3509 3647 2328 
Q 3647 1150 3233 529 
Q 2819 -91 2034 -91 
Q 1250 -91 836 529 
Q 422 1150 422 2328 
Q 422 3509 836 4129 
Q 1250 4750 2034 4750 
z
" transform="scale(0.015625)"/>
       </defs>
       <use xlink:href="#DejaVuSans-30"/>
      </g>
     </g>
    </g>
    <g id="xtick_2">
     <g id="line2d_2">
      <g>
       <use xlink:href="#m8d5af43a73" x="199.411765" y="384.48" style="stroke: #000000; stroke-width: 0.8"/>
      </g>
     </g>
     <g id="text_2">
      <!-- 50 -->
      <g transform="translate(193.049265 399.078438) scale(0.1 -0.1)">
       <defs>
        <path id="DejaVuSans-35" d="M 691 4666 
L 3169 4666 
L 3169 4134 
L 1269 4134 
L 1269 2991 
Q 1406 3038 1543 3061 
Q 1681 3084 1819 3084 
Q 2600 3084 3056 2656 
Q 3513 2228 3513 1497 
Q 3513 744 3044 326 
Q 2575 -91 1722 -91 
Q 1428 -91 1123 -41 
Q 819 9 494 109 
L 494 744 
Q 775 591 1075 516 
Q 1375 441 1709 441 
Q 2250 441 2565 725 
Q 2881 1009 2881 1497 
Q 2881 1984 2565 2268 
Q 2250 2553 1709 2553 
Q 1456 2553 1204 2497 
Q 953 2441 691 2322 
L 691 4666 
z
" transform="scale(0.015625)"/>
       </defs>
       <use xlink:href="#DejaVuSans-35"/>
       <use xlink:href="#DejaVuSans-30" x="63.623047"/>
      </g>
     </g>
    </g>
    <g id="xtick_3">
     <g id="line2d_3">
      <g>
       <use xlink:href="#m8d5af43a73" x="308.823529" y="384.48" style="stroke: #000000; stroke-width: 0.8"/>
      </g>
     </g>
     <g id="text_3">
      <!-- 100 -->
      <g transform="translate(299.279779 399.078438) scale(0.1 -0.1)">
       <defs>
        <path id="DejaVuSans-31" d="M 794 531 
L 1825 531 
L 1825 4091 
L 703 3866 
L 703 4441 
L 1819 4666 
L 2450 4666 
L 2450 531 
L 3481 531 
L 3481 0 
L 794 0 
L 794 531 
z
" transform="scale(0.015625)"/>
       </defs>
       <use xlink:href="#DejaVuSans-31"/>
       <use xlink:href="#DejaVuSans-30" x="63.623047"/>
       <use xlink:href="#DejaVuSans-30" x="127.246094"/>
      </g>
     </g>
    </g>
    <g id="xtick_4">
     <g id="line2d_4">
      <g>
       <use xlink:href="#m8d5af43a73" x="418.235294" y="384.48" style="stroke: #000000; stroke-width: 0.8"/>
      </g>
     </g>
     <g id="text_4">
      <!-- 150 -->
      <g transform="translate(408.691544 399.078438) scale(0.1 -0.1)">
       <use xlink:href="#DejaVuSans-31"/>
       <use xlink:href="#DejaVuSans-35" x="63.623047"/>
       <use xlink:href="#DejaVuSans-30" x="127.246094"/>
      </g>
     </g>
    </g>
    <g id="xtick_5">
     <g id="line2d_5">
      <g>
       <use xlink:href="#m8d5af43a73" x="527.647059" y="384.48" style="stroke: #000000; stroke-width: 0.8"/>
      </g>
     </g>
     <g id="text_5">
      <!-- 200 -->
      <g transform="translate(518.103309 399.078438) scale(0.1 -0.1)">
       <defs>
        <path id="DejaVuSans-32" d="M 1228 531 
L 3431 531 
L 3431 0 
L 469 0 
L 469 531 
Q 828 903 1448 1529 
Q 2069 2156 2228 2338 
Q 2531 2678 2651 2914 
Q 2772 3150 2772 3378 
Q 2772 3750 2511 3984 
Q 2250 4219 1831 4219 
Q 1534 4219 1204 4116 
Q 875 4013 500 3803 
L 500 4441 
Q 881 4594 1212 4672 
Q 1544 4750 1819 4750 
Q 2544 4750 2975 4387 
Q 3406 4025 3406 3419 
Q 3406 3131 3298 2873 
Q 3191 2616 2906 2266 
Q 2828 2175 2409 1742 
Q 1991 1309 1228 531 
z
" transform="scale(0.015625)"/>
       </defs>
       <use xlink:href="#DejaVuSans-32"/>
       <use xlink:href="#DejaVuSans-30" x="63.623047"/>
       <use xlink:href="#DejaVuSans-30" x="127.246094"/>
      </g>
     </g>
    </g>
    <g id="xtick_6">
     <g id="line2d_6">
      <g>
       <use xlink:href="#m8d5af43a73" x="637.058824" y="384.48" style="stroke: #000000; stroke-width: 0.8"/>
      </g>
     </g>
     <g id="text_6">
      <!-- 250 -->
      <g transform="translate(627.515074 399.078438) scale(0.1 -0.1)">
       <use xlink:href="#DejaVuSans-32"/>
       <use xlink:href="#DejaVuSans-35" x="63.623047"/>
       <use xlink:href="#DejaVuSans-30" x="127.246094"/>
      </g>
     </g>
    </g>
    <g id="text_7">
     <!-- Pixel Intensity -->
     <g transform="translate(334.088281 412.756563) scale(0.1 -0.1)">
      <defs>
       <path id="DejaVuSans-50" d="M 1259 4147 
L 1259 2394 
L 2053 2394 
Q 2494 2394 2734 2622 
Q 2975 2850 2975 3272 
Q 2975 3691 2734 3919 
Q 2494 4147 2053 4147 
L 1259 4147 
z
M 628 4666 
L 2053 4666 
Q 2838 4666 3239 4311 
Q 3641 3956 3641 3272 
Q 3641 2581 3239 2228 
Q 2838 1875 2053 1875 
L 1259 1875 
L 1259 0 
L 628 0 
L 628 4666 
z
" transform="scale(0.015625)"/>
       <path id="DejaVuSans-69" d="M 603 3500 
L 1178 3500 
L 1178 0 
L 603 0 
L 603 3500 
z
M 603 4863 
L 1178 4863 
L 1178 4134 
L 603 4134 
L 603 4863 
z
" transform="scale(0.015625)"/>
       <path id="DejaVuSans-78" d="M 3513 3500 
L 2247 1797 
L 3578 0 
L 2900 0 
L 1881 1375 
L 863 0 
L 184 0 
L 1544 1831 
L 300 3500 
L 978 3500 
L 1906 2253 
L 2834 3500 
L 3513 3500 
z
" transform="scale(0.015625)"/>
       <path id="DejaVuSans-65" d="M 3597 1894 
L 3597 1613 
L 953 1613 
Q 991 1019 1311 708 
Q 1631 397 2203 397 
Q 2534 397 2845 478 
Q 3156 559 3463 722 
L 3463 178 
Q 3153 47 2828 -22 
Q 2503 -91 2169 -91 
Q 1331 -91 842 396 
Q 353 884 353 1716 
Q 353 2575 817 3079 
Q 1281 3584 2069 3584 
Q 2775 3584 3186 3129 
Q 3597 2675 3597 1894 
z
M 3022 2063 
Q 3016 2534 2758 2815 
Q 2500 3097 2075 3097 
Q 1594 3097 1305 2825 
Q 1016 2553 972 2059 
L 3022 2063 
z
" transform="scale(0.015625)"/>
       <path id="DejaVuSans-6c" d="M 603 4863 
L 1178 4863 
L 1178 0 
L 603 0 
L 603 4863 
z
" transform="scale(0.015625)"/>
       <path id="DejaVuSans-20" transform="scale(0.015625)"/>
       <path id="DejaVuSans-49" d="M 628 4666 
L 1259 4666 
L 1259 0 
L 628 0 
L 628 4666 
z
" transform="scale(0.015625)"/>
       <path id="DejaVuSans-6e" d="M 3513 2113 
L 3513 0 
L 2938 0 
L 2938 2094 
Q 2938 2591 2744 2837 
Q 2550 3084 2163 3084 
Q 1697 3084 1428 2787 
Q 1159 2491 1159 1978 
L 1159 0 
L 581 0 
L 581 3500 
L 1159 3500 
L 1159 2956 
Q 1366 3272 1645 3428 
Q 1925 3584 2291 3584 
Q 2894 3584 3203 3211 
Q 3513 2838 3513 2113 
z
" transform="scale(0.015625)"/>
       <path id="DejaVuSans-74" d="M 1172 4494 
L 1172 3500 
L 2356 3500 
L 2356 3053 
L 1172 3053 
L 1172 1153 
Q 1172 725 1289 603 
Q 1406 481 1766 481 
L 2356 481 
L 2356 0 
L 1766 0 
Q 1100 0 847 248 
Q 594 497 594 1153 
L 594 3053 
L 172 3053 
L 172 3500 
L 594 3500 
L 594 4494 
L 1172 4494 
z
" transform="scale(0.015625)"/>
       <path id="DejaVuSans-73" d="M 2834 3397 
L 2834 2853 
Q 2591 2978 2328 3040 
Q 2066 3103 1784 3103 
Q 1356 3103 1142 2972 
Q 928 2841 928 2578 
Q 928 2378 1081 2264 
Q 1234 2150 1697 2047 
L 1894 2003 
Q 2506 1872 2764 1633 
Q 3022 1394 3022 966 
Q 3022 478 2636 193 
Q 2250 -91 1575 -91 
Q 1294 -91 989 -36 
Q 684 19 347 128 
L 347 722 
Q 666 556 975 473 
Q 1284 391 1588 391 
Q 1994 391 2212 530 
Q 2431 669 2431 922 
Q 2431 1156 2273 1281 
Q 2116 1406 1581 1522 
L 1381 1569 
Q 847 1681 609 1914 
Q 372 2147 372 2553 
Q 372 3047 722 3315 
Q 1072 3584 1716 3584 
Q 2034 3584 2315 3537 
Q 2597 3491 2834 3397 
z
" transform="scale(0.015625)"/>
       <path id="DejaVuSans-79" d="M 2059 -325 
Q 1816 -950 1584 -1140 
Q 1353 -1331 966 -1331 
L 506 -1331 
L 506 -850 
L 844 -850 
Q 1081 -850 1212 -737 
Q 1344 -625 1503 -206 
L 1606 56 
L 191 3500 
L 800 3500 
L 1894 763 
L 2988 3500 
L 3597 3500 
L 2059 -325 
z
" transform="scale(0.015625)"/>
      </defs>
      <use xlink:href="#DejaVuSans-50"/>
      <use xlink:href="#DejaVuSans-69" x="58.052734"/>
      <use xlink:href="#DejaVuSans-78" x="85.835938"/>
      <use xlink:href="#DejaVuSans-65" x="141.890625"/>
      <use xlink:href="#DejaVuSans-6c" x="203.414062"/>
      <use xlink:href="#DejaVuSans-20" x="231.197266"/>
      <use xlink:href="#DejaVuSans-49" x="262.984375"/>
      <use xlink:href="#DejaVuSans-6e" x="292.476562"/>
      <use xlink:href="#DejaVuSans-74" x="355.855469"/>
      <use xlink:href="#DejaVuSans-65" x="395.064453"/>
      <use xlink:href="#DejaVuSans-6e" x="456.587891"/>
      <use xlink:href="#DejaVuSans-73" x="519.966797"/>
      <use xlink:href="#DejaVuSans-69" x="572.066406"/>
      <use xlink:href="#DejaVuSans-74" x="599.849609"/>
      <use xlink:href="#DejaVuSans-79" x="639.058594"/>
     </g>
    </g>
   </g>
   <g id="matplotlib.axis_2">
    <g id="ytick_1">
     <g id="line2d_7">
      <defs>
       <path id="m7cddf228f2" d="M 0 0 
L -3.5 0 
" style="stroke: #000000; stroke-width: 0.8"/>
      </defs>
      <g>
       <use xlink:href="#m7cddf228f2" x="90" y="384.48" style="stroke: #000000; stroke-width: 0.8"/>
      </g>
     </g>
     <g id="text_8">
      <!-- 0.00 -->
      <g transform="translate(60.734375 388.279219) scale(0.1 -0.1)">
       <defs>
        <path id="DejaVuSans-2e" d="M 684 794 
L 1344 794 
L 1344 0 
L 684 0 
L 684 794 
z
" transform="scale(0.015625)"/>
       </defs>
       <use xlink:href="#DejaVuSans-30"/>
       <use xlink:href="#DejaVuSans-2e" x="63.623047"/>
       <use xlink:href="#DejaVuSans-30" x="95.410156"/>
       <use xlink:href="#DejaVuSans-30" x="159.033203"/>
      </g>
     </g>
    </g>
    <g id="ytick_2">
     <g id="line2d_8">
      <g>
       <use xlink:href="#m7cddf228f2" x="90" y="317.952" style="stroke: #000000; stroke-width: 0.8"/>
      </g>
     </g>
     <g id="text_9">
      <!-- 0.01 -->
      <g transform="translate(60.734375 321.751219) scale(0.1 -0.1)">
       <use xlink:href="#DejaVuSans-30"/>
       <use xlink:href="#DejaVuSans-2e" x="63.623047"/>
       <use xlink:href="#DejaVuSans-30" x="95.410156"/>
       <use xlink:href="#DejaVuSans-31" x="159.033203"/>
      </g>
     </g>
    </g>
    <g id="ytick_3">
     <g id="line2d_9">
      <g>
       <use xlink:href="#m7cddf228f2" x="90" y="251.424" style="stroke: #000000; stroke-width: 0.8"/>
      </g>
     </g>
     <g id="text_10">
      <!-- 0.02 -->
      <g transform="translate(60.734375 255.223219) scale(0.1 -0.1)">
       <use xlink:href="#DejaVuSans-30"/>
       <use xlink:href="#DejaVuSans-2e" x="63.623047"/>
       <use xlink:href="#DejaVuSans-30" x="95.410156"/>
       <use xlink:href="#DejaVuSans-32" x="159.033203"/>
      </g>
     </g>
    </g>
    <g id="ytick_4">
     <g id="line2d_10">
      <g>
       <use xlink:href="#m7cddf228f2" x="90" y="184.896" style="stroke: #000000; stroke-width: 0.8"/>
      </g>
     </g>
     <g id="text_11">
      <!-- 0.03 -->
      <g transform="translate(60.734375 188.695219) scale(0.1 -0.1)">
       <defs>
        <path id="DejaVuSans-33" d="M 2597 2516 
Q 3050 2419 3304 2112 
Q 3559 1806 3559 1356 
Q 3559 666 3084 287 
Q 2609 -91 1734 -91 
Q 1441 -91 1130 -33 
Q 819 25 488 141 
L 488 750 
Q 750 597 1062 519 
Q 1375 441 1716 441 
Q 2309 441 2620 675 
Q 2931 909 2931 1356 
Q 2931 1769 2642 2001 
Q 2353 2234 1838 2234 
L 1294 2234 
L 1294 2753 
L 1863 2753 
Q 2328 2753 2575 2939 
Q 2822 3125 2822 3475 
Q 2822 3834 2567 4026 
Q 2313 4219 1838 4219 
Q 1578 4219 1281 4162 
Q 984 4106 628 3988 
L 628 4550 
Q 988 4650 1302 4700 
Q 1616 4750 1894 4750 
Q 2613 4750 3031 4423 
Q 3450 4097 3450 3541 
Q 3450 3153 3228 2886 
Q 3006 2619 2597 2516 
z
" transform="scale(0.015625)"/>
       </defs>
       <use xlink:href="#DejaVuSans-30"/>
       <use xlink:href="#DejaVuSans-2e" x="63.623047"/>
       <use xlink:href="#DejaVuSans-30" x="95.410156"/>
       <use xlink:href="#DejaVuSans-33" x="159.033203"/>
      </g>
     </g>
    </g>
    <g id="ytick_5">
     <g id="line2d_11">
      <g>
       <use xlink:href="#m7cddf228f2" x="90" y="118.368" style="stroke: #000000; stroke-width: 0.8"/>
      </g>
     </g>
     <g id="text_12">
      <!-- 0.04 -->
      <g transform="translate(60.734375 122.167219) scale(0.1 -0.1)">
       <defs>
        <path id="DejaVuSans-34" d="M 2419 4116 
L 825 1625 
L 2419 1625 
L 2419 4116 
z
M 2253 4666 
L 3047 4666 
L 3047 1625 
L 3713 1625 
L 3713 1100 
L 3047 1100 
L 3047 0 
L 2419 0 
L 2419 1100 
L 313 1100 
L 313 1709 
L 2253 4666 
z
" transform="scale(0.015625)"/>
       </defs>
       <use xlink:href="#DejaVuSans-30"/>
       <use xlink:href="#DejaVuSans-2e" x="63.623047"/>
       <use xlink:href="#DejaVuSans-30" x="95.410156"/>
       <use xlink:href="#DejaVuSans-34" x="159.033203"/>
      </g>
     </g>
    </g>
    <g id="ytick_6">
     <g id="line2d_12">
      <g>
       <use xlink:href="#m7cddf228f2" x="90" y="51.84" style="stroke: #000000; stroke-width: 0.8"/>
      </g>
     </g>
     <g id="text_13">
      <!-- 0.05 -->
      <g transform="translate(60.734375 55.639219) scale(0.1 -0.1)">
       <use xlink:href="#DejaVuSans-30"/>
       <use xlink:href="#DejaVuSans-2e" x="63.623047"/>
       <use xlink:href="#DejaVuSans-30" x="95.410156"/>
       <use xlink:href="#DejaVuSans-35" x="159.033203"/>
      </g>
     </g>
    </g>
    <g id="text_14">
     <!-- Density -->
     <g transform="translate(54.654687 237.168594) rotate(-90) scale(0.1 -0.1)">
      <defs>
       <path id="DejaVuSans-44" d="M 1259 4147 
L 1259 519 
L 2022 519 
Q 2988 519 3436 956 
Q 3884 1394 3884 2338 
Q 3884 3275 3436 3711 
Q 2988 4147 2022 4147 
L 1259 4147 
z
M 628 4666 
L 1925 4666 
Q 3281 4666 3915 4102 
Q 4550 3538 4550 2338 
Q 4550 1131 3912 565 
Q 3275 0 1925 0 
L 628 0 
L 628 4666 
z
" transform="scale(0.015625)"/>
      </defs>
      <use xlink:href="#DejaVuSans-44"/>
      <use xlink:href="#DejaVuSans-65" x="77.001953"/>
      <use xlink:href="#DejaVuSans-6e" x="138.525391"/>
      <use xlink:href="#DejaVuSans-73" x="201.904297"/>
      <use xlink:href="#DejaVuSans-69" x="254.003906"/>
      <use xlink:href="#DejaVuSans-74" x="281.787109"/>
      <use xlink:href="#DejaVuSans-79" x="320.996094"/>
     </g>
    </g>
   </g>
   <g id="patch_259">
    <path d="M 90 384.48 
L 90 51.84 
" style="fill: none; stroke: #000000; stroke-width: 0.8; stroke-linejoin: miter; stroke-linecap: square"/>
   </g>
   <g id="patch_260">
    <path d="M 648 384.48 
L 648 51.84 
" style="fill: none; stroke: #000000; stroke-width: 0.8; stroke-linejoin: miter; stroke-linecap: square"/>
   </g>
   <g id="patch_261">
    <path d="M 90 384.48 
L 648 384.48 
" style="fill: none; stroke: #000000; stroke-width: 0.8; stroke-linejoin: miter; stroke-linecap: square"/>
   </g>
   <g id="patch_262">
    <path d="M 90 51.84 
L 648 51.84 
" style="fill: none; stroke: #000000; stroke-width: 0.8; stroke-linejoin: miter; stroke-linecap: square"/>
   </g>
   <g id="text_15">
    <!-- Pixel Intensity Distribution of Raw Blue Channel -->
    <g transform="translate(226.257188 45.84) scale(0.12 -0.12)">
     <defs>
      <path id="DejaVuSans-72" d="M 2631 2963 
Q 2534 3019 2420 3045 
Q 2306 3072 2169 3072 
Q 1681 3072 1420 2755 
Q 1159 2438 1159 1844 
L 1159 0 
L 581 0 
L 581 3500 
L 1159 3500 
L 1159 2956 
Q 1341 3275 1631 3429 
Q 1922 3584 2338 3584 
Q 2397 3584 2469 3576 
Q 2541 3569 2628 3553 
L 2631 2963 
z
" transform="scale(0.015625)"/>
      <path id="DejaVuSans-62" d="M 3116 1747 
Q 3116 2381 2855 2742 
Q 2594 3103 2138 3103 
Q 1681 3103 1420 2742 
Q 1159 2381 1159 1747 
Q 1159 1113 1420 752 
Q 1681 391 2138 391 
Q 2594 391 2855 752 
Q 3116 1113 3116 1747 
z
M 1159 2969 
Q 1341 3281 1617 3432 
Q 1894 3584 2278 3584 
Q 2916 3584 3314 3078 
Q 3713 2572 3713 1747 
Q 3713 922 3314 415 
Q 2916 -91 2278 -91 
Q 1894 -91 1617 61 
Q 1341 213 1159 525 
L 1159 0 
L 581 0 
L 581 4863 
L 1159 4863 
L 1159 2969 
z
" transform="scale(0.015625)"/>
      <path id="DejaVuSans-75" d="M 544 1381 
L 544 3500 
L 1119 3500 
L 1119 1403 
Q 1119 906 1312 657 
Q 1506 409 1894 409 
Q 2359 409 2629 706 
Q 2900 1003 2900 1516 
L 2900 3500 
L 3475 3500 
L 3475 0 
L 2900 0 
L 2900 538 
Q 2691 219 2414 64 
Q 2138 -91 1772 -91 
Q 1169 -91 856 284 
Q 544 659 544 1381 
z
M 1991 3584 
L 1991 3584 
z
" transform="scale(0.015625)"/>
      <path id="DejaVuSans-6f" d="M 1959 3097 
Q 1497 3097 1228 2736 
Q 959 2375 959 1747 
Q 959 1119 1226 758 
Q 1494 397 1959 397 
Q 2419 397 2687 759 
Q 2956 1122 2956 1747 
Q 2956 2369 2687 2733 
Q 2419 3097 1959 3097 
z
M 1959 3584 
Q 2709 3584 3137 3096 
Q 3566 2609 3566 1747 
Q 3566 888 3137 398 
Q 2709 -91 1959 -91 
Q 1206 -91 779 398 
Q 353 888 353 1747 
Q 353 2609 779 3096 
Q 1206 3584 1959 3584 
z
" transform="scale(0.015625)"/>
      <path id="DejaVuSans-66" d="M 2375 4863 
L 2375 4384 
L 1825 4384 
Q 1516 4384 1395 4259 
Q 1275 4134 1275 3809 
L 1275 3500 
L 2222 3500 
L 2222 3053 
L 1275 3053 
L 1275 0 
L 697 0 
L 697 3053 
L 147 3053 
L 147 3500 
L 697 3500 
L 697 3744 
Q 697 4328 969 4595 
Q 1241 4863 1831 4863 
L 2375 4863 
z
" transform="scale(0.015625)"/>
      <path id="DejaVuSans-52" d="M 2841 2188 
Q 3044 2119 3236 1894 
Q 3428 1669 3622 1275 
L 4263 0 
L 3584 0 
L 2988 1197 
Q 2756 1666 2539 1819 
Q 2322 1972 1947 1972 
L 1259 1972 
L 1259 0 
L 628 0 
L 628 4666 
L 2053 4666 
Q 2853 4666 3247 4331 
Q 3641 3997 3641 3322 
Q 3641 2881 3436 2590 
Q 3231 2300 2841 2188 
z
M 1259 4147 
L 1259 2491 
L 2053 2491 
Q 2509 2491 2742 2702 
Q 2975 2913 2975 3322 
Q 2975 3731 2742 3939 
Q 2509 4147 2053 4147 
L 1259 4147 
z
" transform="scale(0.015625)"/>
      <path id="DejaVuSans-61" d="M 2194 1759 
Q 1497 1759 1228 1600 
Q 959 1441 959 1056 
Q 959 750 1161 570 
Q 1363 391 1709 391 
Q 2188 391 2477 730 
Q 2766 1069 2766 1631 
L 2766 1759 
L 2194 1759 
z
M 3341 1997 
L 3341 0 
L 2766 0 
L 2766 531 
Q 2569 213 2275 61 
Q 1981 -91 1556 -91 
Q 1019 -91 701 211 
Q 384 513 384 1019 
Q 384 1609 779 1909 
Q 1175 2209 1959 2209 
L 2766 2209 
L 2766 2266 
Q 2766 2663 2505 2880 
Q 2244 3097 1772 3097 
Q 1472 3097 1187 3025 
Q 903 2953 641 2809 
L 641 3341 
Q 956 3463 1253 3523 
Q 1550 3584 1831 3584 
Q 2591 3584 2966 3190 
Q 3341 2797 3341 1997 
z
" transform="scale(0.015625)"/>
      <path id="DejaVuSans-77" d="M 269 3500 
L 844 3500 
L 1563 769 
L 2278 3500 
L 2956 3500 
L 3675 769 
L 4391 3500 
L 4966 3500 
L 4050 0 
L 3372 0 
L 2619 2869 
L 1863 0 
L 1184 0 
L 269 3500 
z
" transform="scale(0.015625)"/>
      <path id="DejaVuSans-42" d="M 1259 2228 
L 1259 519 
L 2272 519 
Q 2781 519 3026 730 
Q 3272 941 3272 1375 
Q 3272 1813 3026 2020 
Q 2781 2228 2272 2228 
L 1259 2228 
z
M 1259 4147 
L 1259 2741 
L 2194 2741 
Q 2656 2741 2882 2914 
Q 3109 3088 3109 3444 
Q 3109 3797 2882 3972 
Q 2656 4147 2194 4147 
L 1259 4147 
z
M 628 4666 
L 2241 4666 
Q 2963 4666 3353 4366 
Q 3744 4066 3744 3513 
Q 3744 3084 3544 2831 
Q 3344 2578 2956 2516 
Q 3422 2416 3680 2098 
Q 3938 1781 3938 1306 
Q 3938 681 3513 340 
Q 3088 0 2303 0 
L 628 0 
L 628 4666 
z
" transform="scale(0.015625)"/>
      <path id="DejaVuSans-43" d="M 4122 4306 
L 4122 3641 
Q 3803 3938 3442 4084 
Q 3081 4231 2675 4231 
Q 1875 4231 1450 3742 
Q 1025 3253 1025 2328 
Q 1025 1406 1450 917 
Q 1875 428 2675 428 
Q 3081 428 3442 575 
Q 3803 722 4122 1019 
L 4122 359 
Q 3791 134 3420 21 
Q 3050 -91 2638 -91 
Q 1578 -91 968 557 
Q 359 1206 359 2328 
Q 359 3453 968 4101 
Q 1578 4750 2638 4750 
Q 3056 4750 3426 4639 
Q 3797 4528 4122 4306 
z
" transform="scale(0.015625)"/>
      <path id="DejaVuSans-68" d="M 3513 2113 
L 3513 0 
L 2938 0 
L 2938 2094 
Q 2938 2591 2744 2837 
Q 2550 3084 2163 3084 
Q 1697 3084 1428 2787 
Q 1159 2491 1159 1978 
L 1159 0 
L 581 0 
L 581 4863 
L 1159 4863 
L 1159 2956 
Q 1366 3272 1645 3428 
Q 1925 3584 2291 3584 
Q 2894 3584 3203 3211 
Q 3513 2838 3513 2113 
z
" transform="scale(0.015625)"/>
     </defs>
     <use xlink:href="#DejaVuSans-50"/>
     <use xlink:href="#DejaVuSans-69" x="58.052734"/>
     <use xlink:href="#DejaVuSans-78" x="85.835938"/>
     <use xlink:href="#DejaVuSans-65" x="141.890625"/>
     <use xlink:href="#DejaVuSans-6c" x="203.414062"/>
     <use xlink:href="#DejaVuSans-20" x="231.197266"/>
     <use xlink:href="#DejaVuSans-49" x="262.984375"/>
     <use xlink:href="#DejaVuSans-6e" x="292.476562"/>
     <use xlink:href="#DejaVuSans-74" x="355.855469"/>
     <use xlink:href="#DejaVuSans-65" x="395.064453"/>
     <use xlink:href="#DejaVuSans-6e" x="456.587891"/>
     <use xlink:href="#DejaVuSans-73" x="519.966797"/>
     <use xlink:href="#DejaVuSans-69" x="572.066406"/>
     <use xlink:href="#DejaVuSans-74" x="599.849609"/>
     <use xlink:href="#DejaVuSans-79" x="639.058594"/>
     <use xlink:href="#DejaVuSans-20" x="698.238281"/>
     <use xlink:href="#DejaVuSans-44" x="730.025391"/>
     <use xlink:href="#DejaVuSans-69" x="807.027344"/>
     <use xlink:href="#DejaVuSans-73" x="834.810547"/>
     <use xlink:href="#DejaVuSans-74" x="886.910156"/>
     <use xlink:href="#DejaVuSans-72" x="926.119141"/>
     <use xlink:href="#DejaVuSans-69" x="967.232422"/>
     <use xlink:href="#DejaVuSans-62" x="995.015625"/>
     <use xlink:href="#DejaVuSans-75" x="1058.492188"/>
     <use xlink:href="#DejaVuSans-74" x="1121.871094"/>
     <use xlink:href="#DejaVuSans-69" x="1161.080078"/>
     <use xlink:href="#DejaVuSans-6f" x="1188.863281"/>
     <use xlink:href="#DejaVuSans-6e" x="1250.044922"/>
     <use xlink:href="#DejaVuSans-20" x="1313.423828"/>
     <use xlink:href="#DejaVuSans-6f" x="1345.210938"/>
     <use xlink:href="#DejaVuSans-66" x="1406.392578"/>
     <use xlink:href="#DejaVuSans-20" x="1441.597656"/>
     <use xlink:href="#DejaVuSans-52" x="1473.384766"/>
     <use xlink:href="#DejaVuSans-61" x="1540.617188"/>
     <use xlink:href="#DejaVuSans-77" x="1601.896484"/>
     <use xlink:href="#DejaVuSans-20" x="1683.683594"/>
     <use xlink:href="#DejaVuSans-42" x="1715.470703"/>
     <use xlink:href="#DejaVuSans-6c" x="1784.074219"/>
     <use xlink:href="#DejaVuSans-75" x="1811.857422"/>
     <use xlink:href="#DejaVuSans-65" x="1875.236328"/>
     <use xlink:href="#DejaVuSans-20" x="1936.759766"/>
     <use xlink:href="#DejaVuSans-43" x="1968.546875"/>
     <use xlink:href="#DejaVuSans-68" x="2038.371094"/>
     <use xlink:href="#DejaVuSans-61" x="2101.75"/>
     <use xlink:href="#DejaVuSans-6e" x="2163.029297"/>
     <use xlink:href="#DejaVuSans-6e" x="2226.408203"/>
     <use xlink:href="#DejaVuSans-65" x="2289.787109"/>
     <use xlink:href="#DejaVuSans-6c" x="2351.310547"/>
    </g>
   </g>
  </g>
 </g>
 <defs>
  <clipPath id="pca40ccd3d5">
   <rect x="90" y="51.84" width="558" height="332.64"/>
  </clipPath>
 </defs>
</svg>
